<?xml version="1.0" standalone="no"?>
<!DOCTYPE svg PUBLIC "-//W3C//DTD SVG 1.1//EN" "http://www.w3.org/Graphics/SVG/1.1/DTD/svg11.dtd" >
<svg xmlns="http://www.w3.org/2000/svg">
<metadata>
This is a custom SVG webfont generated by Font Squirrel.
Copyright   : This font was created in Tampico Tamaulipas Mxico by Rodrigo Navarro Bolado aka rodromoptero rodromopterogmailcom
Designer    : Rodrigo Navarro Bolado
Foundry     : Rodrigo Navarro Bolado
</metadata>
<defs>
<font id="CarnalaRegular" horiz-adv-x="604" >
<font-face units-per-em="2048" ascent="1638" descent="-410" />
<missing-glyph horiz-adv-x="384" />
<glyph unicode=" "  horiz-adv-x="384" />
<glyph unicode="&#x09;" horiz-adv-x="384" />
<glyph unicode="&#xa0;" horiz-adv-x="384" />
<glyph unicode="!" horiz-adv-x="153" d="M36 31v1121q0 36 41 36q36 0 36 -36v-1121q0 -15 -10.5 -28t-25.5 -13q-41 0 -41 41zM36 -92q0 41 41 41q15 0 25.5 -13t10.5 -28v-113q0 -15 -10.5 -28t-25.5 -13q-41 0 -41 41v113z" />
<glyph unicode="&#x22;" horiz-adv-x="460" d="M36 1347q0 44 41 61q20 9 41 9l41 -9q41 -18 41 -61q0 -77 -19.5 -177t-62.5 -100q-36 0 -59 97.5t-23 179.5zM261 1347q0 44 41 61q20 9 41 9l41 -9q41 -18 41 -61q0 -77 -19 -177t-63 -100q-36 0 -59 97.5t-23 179.5z" />
<glyph unicode="#" horiz-adv-x="1080" d="M38 448q0 38 39 38h210l87 282h-185q-38 0 -38 38.5t38 38.5h210l108 338q19 27 41 27q5 0 10 -2q33 -10 26 -46l-103 -317h256l108 338q8 27 33 27q6 0 13 -2q41 -10 31 -46q-3 -5 -16 -43.5t-38.5 -123t-48.5 -150.5h185q36 0 35.5 -38.5t-35.5 -38.5h-210 q-18 -49 -50 -150l-43 -132h190q36 0 36 -38t-36 -38h-215l-123 -384q-8 -27 -34 -27q-6 0 -12 1q-15 5 -24 18t-2 28l113 364h-251q-23 -77 -55 -173l-49 -147q-17 -51 -19 -64q-19 -27 -41 -27q-5 0 -10 1q-33 10 -26 46l118 364h-184q-39 0 -39 38zM369 486h251l92 282 h-256q-10 -36 -41 -133z" />
<glyph unicode="$" horiz-adv-x="609" d="M36 266q0 54 6.5 110.5t13.5 84.5l5 31q5 31 36 30q20 0 30.5 -14t10.5 -27q0 -5 -12.5 -58.5t-12.5 -125.5q0 -223 143 -246h41v563q-20 18 -48.5 51.5t-77 124.5t-48.5 167q0 92 43.5 146t86.5 62l44 7v123q-5 36 36 36q18 0 28 -9t13 -16v-11v-123q8 0 22 -2.5 t48.5 -17.5t60 -42t47 -81t21.5 -128l-10 -113q0 -31 -35.5 -30.5t-35.5 41.5q0 8 2.5 29.5t2.5 57.5q0 179 -108 212l-15 3v-461q18 -15 46 -44.5t75.5 -111.5t47.5 -156q0 -82 -18 -147.5t-42.5 -98.5t-48.5 -56t-42 -31l-18 -5v-98q0 -41 -41 -40q-38 3 -36 35v87h-15 q-125 0 -185.5 88.5t-60.5 203.5zM200 962.5q0 -51.5 24 -107.5t47 -87l26 -31v359l-27 -8t-43.5 -39.5t-26.5 -86zM374 77q10 5 25.5 20.5t41 80.5t25.5 155q0 46 -23 97t-46 79l-23 29v-461z" />
<glyph unicode="%" horiz-adv-x="573" d="M36 906q0 92 33 159t79 67q44 0 76 -67t32 -159q0 -95 -32 -160t-76 -65q-46 0 -79 65t-33 160zM72 46l363 1137q8 27 34 27q6 0 12 -2q41 -10 31 -46q-5 -10 -91 -275l-178 -550l-100 -311q-8 -27 -33 -27q-6 0 -13 1q-15 5 -24 18q-5 7 -5 14t4 14zM97 906 q0 -51 14 -87t37 -36q18 0 32.5 36t14.5 87t-14.5 87t-32.5 36q-23 0 -37 -36t-14 -87zM317 297q0 95 33.5 160t79.5 65q44 0 76 -65t32 -160q0 -92 -32 -156t-76 -64q-46 0 -79.5 64t-33.5 156zM379 297q0 -51 14 -87t37 -36q18 0 32 36t14 87t-14 87t-32 36q-23 0 -37 -36 t-14 -87z" />
<glyph unicode="&#x26;" horiz-adv-x="788" d="M36 230q0 100 47.5 188.5t95.5 126.5l46 39q-61 92 -61 307q0 151 51 216t128 65q79 0 137 -61t58 -215q0 -84 -52.5 -167.5t-106.5 -124.5l-51 -41q0 -13 39 -77l78 -122l41 -57l174 241q5 20 36 20q18 0 27 -15t9 -26l-5 -20l-195 -266q184 -184 205 -210 q11 -10 12 -23q0 -7 -4 -16q-10 -23 -38 -23q-15 0 -71.5 54t-105.5 108l-49 53q-18 -23 -48.5 -57.5t-110 -93.5t-138.5 -59q-148 0 -148 256zM111 251v-13q0 -16 2 -42q3 -40 9 -70.5t21.5 -55t40.5 -24.5q87 5 246 195q-23 26 -65 93l-73 122l-31 56l-41 -36 q-26 -23 -66.5 -85.5t-40.5 -114.5q-1 -10 -2 -25zM241 896q0 -51 11.5 -116.5t23.5 -103.5l11 -41l46 34q28 22 75.5 96.5t47.5 150.5q0 74 -33.5 127t-79.5 53t-74 -55t-28 -145z" />
<glyph unicode="'" horiz-adv-x="235" d="M36 1347q0 44 41 61q20 9 41 9l41 -9q41 -18 41 -61q0 -77 -19.5 -177t-62.5 -100q-36 0 -59 97.5t-23 179.5z" />
<glyph unicode="(" horiz-adv-x="455" d="M36 579q0 161 28 280t66.5 179t89.5 94.5t83 42.5t61 8q54 0 51 -36q0 -41 -46 -41q-97 0 -176.5 -123t-79.5 -404q0 -253 83 -395.5t173 -142.5q46 0 46 -41q0 -36 -41 -36q-102 0 -176.5 74.5t-105.5 188t-43.5 199.5t-12.5 153z" />
<glyph unicode=")" horiz-adv-x="455" d="M87 36q97 0 176.5 124t79.5 403q0 259 -83 401t-173 142q-46 0 -46 41q0 13 11.5 24.5t29.5 11.5q84 0 148 -52.5t99 -125.5t56.5 -166.5t28 -159t6.5 -116.5q0 -161 -28 -280t-66.5 -179t-90 -95t-83.5 -42.5t-60 -7.5q-51 0 -51 33q0 44 46 44z" />
<glyph unicode="*" horiz-adv-x="599" d="M138 328q-14 14 -14 28t14 28l108 102l-108 108q-13 13 -13 25.5t13 25.5q14 14 28 14l29 -14l66 -66v97q0 36 36 36q15 0 28 -10.5t13 -25.5v-97l66 66q26 26 52 0q13 -13 12.5 -25.5t-12.5 -25.5l-103 -108l103 -102q14 -14 14 -28t-14 -28q-26 -26 -52 0l-66 66v-92 q0 -41 -41 -41q-36 0 -36 41v92l-66 -66q-14 -14 -29 -14z" />
<glyph unicode="+" horiz-adv-x="706" d="M128 486q0 15 10 28t26 13h148v149q0 15 13 25.5t28 10.5q36 0 36 -36v-149h149q15 0 28 -12.5t13 -28t-13 -25.5t-28 -10h-149v-149q0 -41 -36 -41q-41 0 -41 41v149h-148q-36 -1 -36 35z" />
<glyph unicode="," horiz-adv-x="215" d="M26 82q0 26 25.5 51.5t50.5 25.5q36 0 59 -24.5t23 -52.5v-15v-38q0 -27 -2.5 -52.5t-9 -56t-14 -52.5t-23 -37t-33.5 -15v184q-28 0 -52 23t-24 59z" />
<glyph unicode="-" horiz-adv-x="481" d="M38 724.5q0 38.5 39 38.5h-3h3h2h3h2h3h3h2h3h2h3h2h3h3h2h3h2h3h2h3h2h3h3h2h3h2h3h2h3h2h3h3h2h3h2h3h2h3h3h2h3h2h3h2h3h2h3h3h2h3h2h3h2h3h2h3h3h2h3h2h3h2h3h3h2h3h2h3h2h3h2h3h3h2h3h2h3h2h3h2h3h3h2h3h2h3h2h3h3h2h3h2h3h2h3h2h3h3h2h3h2h3h2h3h2h3h3h2h3h2h3h2h3 h3h2h3h2h3h2h3h25q36 0 36 -38.5t-36 -38.5h-327q-39 0 -39 38.5z" />
<glyph unicode="." horiz-adv-x="204" d="M26 77q0 28 21.5 52.5t54.5 24.5q26 0 51.5 -26t25.5 -51q0 -33 -24 -55t-53 -22q-36 0 -56 20.5t-20 56.5z" />
<glyph unicode="/" horiz-adv-x="522" d="M41 46l363 1137q10 33 47 25q41 -10 30 -46q-5 -10 -91 -275l-178 -550q-92 -285 -99 -311q-10 -33 -46 -26q-15 5 -24.5 18t-1.5 28z" />
<glyph unicode="0" horiz-adv-x="660" d="M36 573q0 248 85.5 423.5t206.5 175.5q123 0 207.5 -174t84.5 -425q0 -253 -84.5 -426t-207.5 -173q-120 0 -206 174t-86 425zM118 573q0 -223 60 -375t149.5 -152t152.5 153.5t63 373.5q0 218 -63 373t-152 155q-87 0 -148.5 -154t-61.5 -374z" />
<glyph unicode="1" horiz-adv-x="537" d="M36 36q0 38 31 41h163v906l-92 -138q-10 -20 -36 -21q-36 0 -35 41l5 16l164 245q10 20 30 21q41 0 41 -36v-1034h154q41 0 41 -41q0 -18 -10.5 -27t-20.5 -9h-10h-389h-11q-5 0 -15 9t-10 27z" />
<glyph unicode="2" horiz-adv-x="675" d="M36 794l5 25q5 15 16.5 38.5t47.5 85t75.5 107.5t101 84t122.5 38q74 0 106.5 -58.5t32.5 -130.5q0 -133 -100 -359.5t-200 -387.5l-100 -159h456q41 0 41 -41q0 -18 -10 -27t-21 -9h-10h-522q-41 0 -41 36l10 25l117 191q70 116 186.5 362t116.5 359q0 123 -67 123 q-136 0 -266 -261l-25 -57q-5 -20 -36 -20q-36 0 -36 36z" />
<glyph unicode="3" horiz-adv-x="563" d="M-77 143q0 36 36 36q41 0 41 -36q0 -92 113 -92q108 0 220 116.5t112 359.5q0 82 -14 141t-30.5 84.5t-44.5 39.5t-39.5 15.5t-29.5 1.5q-44 0 -101.5 -24.5t-93.5 -47.5l-36 -25q-5 -5 -20 -5q-13 0 -24.5 11.5t-11.5 29.5l15 35l292 287h-271q-36 0 -36 41q0 33 36 36 h363q5 1 9 0q32 0 32 -36l-10 -26l-210 -209q46 10 72 10q67 0 114 -36t69 -78t33.5 -105t12.5 -87t1 -53q0 -131 -33 -234.5t-80.5 -161t-106.5 -94.5t-103.5 -50t-80.5 -13q-97 0 -146 48.5t-49 120.5z" />
<glyph unicode="4" horiz-adv-x="675" d="M36 553l118 568q10 26 41 26q36 0 35 -36v-15l-107 -502h374v517q0 36 41 36q38 -3 35 -36v-517h26q15 0 28 -13t13 -28t-13 -25.5t-28 -10.5h-26v-481q0 -36 -35 -36q-18 0 -28.5 9t-12.5 17v10v481h-420q-41 0 -41 36z" />
<glyph unicode="5" horiz-adv-x="645" d="M41 195v25q-5 41 36 41q18 0 28 -10t13 -21v-10v-19q0 -12 9 -40t23 -51t47 -41t79 -18q115 0 185.5 127t70.5 288q0 292 -209 292q-41 0 -86 -11.5t-68 -24.5l-26 -10h-20q-36 0 -36 36v20l92 353q5 26 36 26h230q36 0 36 -36q0 -41 -30 -41h-205l-67 -261q67 26 154 26 q131 0 203.5 -93.5t72.5 -275.5q0 -197 -89.5 -344.5t-248.5 -147.5q-67 0 -114 26t-68.5 61.5t-33 71.5t-14.5 62z" />
<glyph unicode="6" horiz-adv-x="660" d="M36 553q0 317 96 468t226 151q64 0 109 -32t45 -60q0 -36 -41 -36l-20 11q-36 41 -93 41q-115 0 -176.5 -143.5t-63.5 -286.5l-5 -144q3 8 9 22t28 48.5t47.5 60t69 47.5t91.5 22q100 0 183.5 -102.5t83.5 -276.5q0 -172 -83.5 -270.5t-183.5 -98.5q-120 0 -221 136 t-101 443zM164 343q0 -95 52.5 -193.5t141.5 -98.5q84 0 137 102.5t53 189.5q0 51 -16.5 116.5t-63 125.5t-110.5 60q-90 0 -142 -101t-52 -201z" />
<glyph unicode="7" horiz-adv-x="655" d="M36 1111q0 36 41 36h502q36 0 35 -36l-5 -36l-66 -215h36h10q5 0 15 -9t10 -27t-9 -28t-16 -13h-10h-57l-235 -757q-10 -26 -36 -26q-41 0 -41 41l5 20l225 722h-297q-41 0 -41 41q0 15 10.5 24.5t20.5 11.5h10h318l66 210h-450q-41 0 -41 41z" />
<glyph unicode="8" horiz-adv-x="696" d="M36 394q0 118 43.5 210t86.5 126l44 33q-5 3 -15.5 6.5t-34.5 21.5t-43.5 37t-34.5 52.5t-15 71.5q0 97 83 158.5t198 61.5q133 0 207.5 -70t74.5 -150q0 -56 -34.5 -103.5t-68.5 -65.5l-35 -20q8 -5 18 -13t38 -38.5t50 -69t39.5 -105t17.5 -143.5q0 -195 -92 -307.5 t-215 -112.5t-217.5 115.5t-94.5 304.5zM118 394q0 -51 15 -121.5t71.5 -146t143.5 -75.5t143.5 77t72 148.5t15.5 127.5q0 92 -60.5 212.5t-170.5 120.5q-79 0 -135.5 -73t-75.5 -146t-19 -124zM148 963q0 -61 46.5 -107.5t153.5 -46.5q205 0 205 154q0 51 -54 92t-151 41 q-92 0 -146 -41t-54 -92z" />
<glyph unicode="9" horiz-adv-x="660" d="M36 768q0 177 84.5 290.5t181.5 113.5q113 0 215.5 -152t102.5 -462q0 -312 -93.5 -448t-224.5 -136q-64 0 -111.5 32t-47.5 61q0 36 46 35l21 -10q31 -41 87 -41q195 0 238 374l8 164l-8 -22t-27 -48.5t-46 -60t-67.5 -47.5t-92.5 -22q-102 0 -184 101t-82 278zM113 768 q0 -51 16.5 -116.5t62.5 -125.5t110 -60q90 0 140 102.5t50 199.5q0 105 -50 216.5t-140 111.5q-84 0 -136.5 -119t-52.5 -209z" />
<glyph unicode=":" horiz-adv-x="204" d="M26 77q0 31 23 54t53 23q33 0 55 -23t22 -54q0 -36 -20.5 -56.5t-56.5 -20.5q-31 0 -53.5 22t-22.5 55zM26 666q0 33 23 54.5t53 21.5q36 0 56.5 -20.5t20.5 -55.5q0 -28 -21.5 -52.5t-55.5 -24.5q-31 0 -53.5 24.5t-22.5 52.5z" />
<glyph unicode=";" horiz-adv-x="204" d="M26 77q0 28 21.5 52.5t54.5 24.5q26 0 51.5 -26t25.5 -51v-14q0 -9 -1 -36t-3.5 -51.5t-9 -54t-14.5 -51t-20.5 -35.5t-28.5 -14v179q-36 0 -56 20.5t-20 56.5zM26 666q0 36 20.5 56t56 20t56 -20.5t20.5 -55.5q0 -31 -21.5 -54t-55 -23t-55 23t-21.5 54z" />
<glyph unicode="&#x3c;" horiz-adv-x="962" d="M41 568q0 28 26 36q10 5 188 64l382 126l233 76q7 4 15 4l16 -5q15 -9 21 -24q2 -7 2 -14q0 -25 -33 -32q-13 -5 -338 -112.5t-353 -118.5l691 -230q33 -8 33 -33q0 -6 -2 -13q-5 -15 -21 -24q-8 -5 -16 -5l-15 3q-10 3 -189 62l-378 125l-236 79q-26 8 -26 36z" />
<glyph unicode="=" horiz-adv-x="558" d="M38 545.5q0 38.5 39 38.5h404q36 0 36 -38.5t-36 -38.5h-404q-39 0 -39 38.5zM38 724.5q0 38.5 39 38.5h404q36 0 36 -38.5t-36 -38.5h-404q-39 0 -39 38.5z" />
<glyph unicode="&#x3e;" horiz-adv-x="962" d="M41 292q-1 6 -1 11q0 23 27 35q10 3 336.5 110.5t359.5 114.5l-696 231q-27 12 -27 35q0 5 1 11q8 33 33 32q6 0 13 -2q10 -5 188 -64l383 -125q205 -67 233 -77q31 -10 31 -38t-31 -39q-148 -59 -804 -266q-7 -2 -13 -2q-25 0 -33 33z" />
<glyph unicode="?" horiz-adv-x="512" d="M36 722q0 233 62.5 354.5t157.5 121.5t157.5 -124t62.5 -352q0 -108 -15.5 -193.5t-38.5 -134t-49.5 -82t-47 -45t-33.5 -11.5v-169q5 -36 -36 -36q-20 0 -30.5 13t-10.5 23v205q0 15 14 25.5t27 10.5q31 0 63 38t56 131.5t24 219.5q0 192 -46 298t-102 106 q-69 0 -103.5 -144.5t-34.5 -254.5q5 -36 -36 -36q-15 0 -25.5 9t-13 15.5t-2.5 11.5zM220 -82q0 15 10.5 28t25.5 13t28 -13t13 -28v-118q0 -15 -13 -28t-28 -13t-25.5 13t-10.5 28v118z" />
<glyph unicode="@" horiz-adv-x="1090" d="M36 522q0 276 151 463t438 187q108 0 191 -48.5t125 -113.5t69 -148.5t33.5 -137t6.5 -94.5q0 -143 -58 -225t-127 -82q-102 0 -184 94.5t-82 181.5l-14 -35q-9 -22 -38.5 -76.5t-60 -95.5t-73 -75.5t-80.5 -34.5q-113 0 -113 153q0 26 5 69.5t29.5 120t65.5 139.5 t120.5 110.5t184.5 47.5q18 0 29.5 -13t11.5 -23q0 -26 -8 -64.5t-8 -73.5q0 -123 60.5 -236t154.5 -113q113 0 113 267q0 143 -98.5 286.5t-254.5 143.5q-184 0 -345.5 -146t-161.5 -428q0 -471 486 -471q133 0 231 128l5 5q10 20 30 21q15 0 30.5 -10.5t15.5 -25.5 q0 -46 -88 -120.5t-219 -74.5q-120 0 -212 22t-179 77t-134.5 169t-47.5 280zM297 410q0 -49 36 -52q113 0 233 418l18 69q-100 0 -193.5 -119t-93.5 -316z" />
<glyph unicode="A" horiz-adv-x="824" d="M36 36l5 15l333 1070q10 26 41 26l36 -26l337 -1075v-10q0 -13 -11.5 -24.5t-28.5 -11.5l-36 26l-144 466h-307l-148 -466q-10 -26 -36 -26q-20 0 -30.5 13t-10.5 23zM282 568h261l-128 415z" />
<glyph unicode="B" horiz-adv-x="778" d="M36 46v1065q0 36 41 36t41 -36v-41q189 102 307 102q148 0 148 -107q0 -179 -153 -284l-21 -13q61 15 154 15q154 0 182 -146q6 -31 6 -62q0 -130 -101 -278q-159 -236 -433 -284q-64 -13 -130 -13q-41 0 -41 46zM118 77q169 0 358.5 153.5t189.5 373.5q0 49 -36 76 t-92 27q-169 0 -420 -103v-527zM118 686q15 5 40.5 16.5t91 48.5t115.5 78t91 106.5t41 134.5q-9 26 -51 26q-20 0 -47 -5q-84 -18 -184 -62l-97 -41v-302z" />
<glyph unicode="C" horiz-adv-x="696" d="M36 568q0 266 120 435t300 169q100 0 149.5 -55t49.5 -119q0 -36 -35 -35q-20 0 -30.5 10t-10.5 20v11q0 3 -1.5 9t-8 22.5t-18 28t-38.5 22t-62 10.5q-151 0 -244.5 -160t-93.5 -368q0 -210 94.5 -363.5t258.5 -153.5q56 0 84.5 29.5t28.5 67.5q5 36 41 36q33 0 35 -36 q0 -8 -1 -19t-11.5 -40.5t-28.5 -52.5t-58.5 -42.5t-94.5 -19.5q-177 0 -301 167.5t-124 426.5z" />
<glyph unicode="D" horiz-adv-x="680" d="M41 36v1075q-5 36 36 36q18 0 28 -9t13 -17v-10v-26q133 87 292 87q118 0 174 -94.5t56 -248.5q0 -340 -165 -584.5t-398 -244.5q-36 0 -36 36zM118 77q172 0 308.5 234t136.5 539q0 49 -7.5 96t-41 98.5t-89.5 51.5q-184 -3 -307 -98v-921z" />
<glyph unicode="E" d="M36 36v1075q0 36 41 36h455q36 0 36 -36q0 -18 -9 -28t-16 -13h-11h-419v-312h240q36 0 36 -36q0 -18 -9 -28t-16 -13h-11h-240v-604h419q36 0 36 -41q-2 -36 -31 -36h-5h-455q-18 0 -29.5 11.5t-11.5 24.5z" />
<glyph unicode="F" d="M36 31v10v1070q0 36 41 36h455h11q5 0 15 -9t10 -27t-10 -28t-20 -13h-11h-414v-307h240q36 0 36 -41q-3 -38 -36 -36h-240v-645q0 -41 -36 -41q-18 0 -28 10.5t-13 20.5z" />
<glyph unicode="G" horiz-adv-x="808" d="M36 461q0 87 15.5 188t57.5 229t138 211t234 83q100 0 163 -47t63 -86q0 -18 -9 -28t-17 -13h-10l-36 26q-3 8 -12 19.5t-51 32t-101 20.5q-102 0 -177.5 -65.5t-111.5 -169t-52.5 -198.5t-16.5 -182q0 -430 291 -430q148 0 220 137t72 339q0 77 -3.5 141t-6.5 90l-5 25 h-312h-11q-5 0 -15 9t-10 27t9 28.5t16 12.5h11h348q10 0 19 -7.5t12 -15.5l5 -8q20 -123 20 -261q0 -61 -4 -117.5t-24.5 -150t-57.5 -160t-110 -116.5t-172.5 -50t-172.5 42.5t-110.5 97.5t-57.5 133t-24 123t-4 91z" />
<glyph unicode="H" horiz-adv-x="609" d="M41 36v1075q-5 36 36 36q18 0 28 -9t13 -17v-10v-348h374v348q0 36 40 36q33 0 36 -36v-1075q5 -36 -36 -36q-38 3 -35 36v650h-379v-650q0 -36 -41 -36q-39 3 -36 36z" />
<glyph unicode="I" d="M36 36q0 18 10 28t21 13h10h184v993h-184q-41 0 -41 41q0 36 41 36h450q5 1 9 0q32 0 32 -36q0 -41 -41 -41h-189v-993h189q41 0 41 -41q0 -36 -41 -36h-450q-41 0 -41 36z" />
<glyph unicode="J" horiz-adv-x="640" d="M36 230q0 36 41 36q36 0 36 -36q0 -69 48.5 -124t145.5 -55q105 0 162.5 55t57.5 145v819h-204q-41 0 -41 41q0 15 10 24t20 12h11h240q41 0 41 -36v-788q0 -113 -27 -187.5t-75.5 -107.5t-90.5 -43.5t-99 -10.5q-82 0 -140.5 29.5t-85.5 74.5t-38.5 83t-11.5 69z" />
<glyph unicode="K" horiz-adv-x="609" d="M41 36v1075q-5 36 36 36q38 -3 36 -36v-312l394 338q10 10 31 10q13 0 24 -10.5t11 -25.5l-10 -31l-225 -189l230 -845v-10q0 -36 -36 -36l-35 26l-221 809l-158 -134v-665q0 -36 -41 -36q-39 3 -36 36z" />
<glyph unicode="L" horiz-adv-x="609" d="M41 41v1070q-5 36 36 36q38 -3 36 -36v-1034h419q36 0 36 -41q0 -33 -36 -36h-455q-36 0 -36 41z" />
<glyph unicode="M" horiz-adv-x="696" d="M36 41v1070q0 36 41 36q10 0 17.5 -4t10.5 -6l3 -5l199 -344l287 349q10 10 20 10q23 0 34.5 -13t11.5 -23v-1075q0 -36 -40 -36q-33 0 -36 36v968l-251 -308q-10 -10 -31 -10q-10 0 -18 4t-10 6l-3 5l-158 267v-927q0 -41 -36 -41q-41 0 -41 41z" />
<glyph unicode="N" horiz-adv-x="614" d="M36 36v1075q0 36 41 36q10 0 17.5 -4t10.5 -6l3 -5l389 -912v891q0 36 41 36q33 0 35 -36v-1075q0 -41 -35 -41l-36 20l-389 907v-886v-10q0 -5 -10.5 -15.5t-30.5 -10.5q-36 0 -36 36z" />
<glyph unicode="O" horiz-adv-x="747" d="M36 635q0 246 112.5 391.5t225 145.5t193.5 -90.5t113 -209.5t32 -247q0 -131 -34.5 -274.5t-114 -260t-184.5 -116.5q-164 0 -253.5 187t-89.5 474zM113 599q0 -246 80.5 -397t180.5 -151q95 0 178 173t83 396q0 218 -80.5 347t-180.5 129q-82 0 -171.5 -130.5 t-89.5 -366.5z" />
<glyph unicode="P" horiz-adv-x="609" d="M41 36v1075v10q0 5 14 15.5t42 10.5q471 0 471 -246q0 -230 -289 -269q-50 -6 -95 -6q-34 0 -66 4v-594q0 -36 -41 -36q-39 3 -36 36zM118 707q8 0 22 -1.5t52 -2.5q10 0 19 -1q28 0 54 3q35 4 78.5 17t74 34.5t52.5 60t22 89.5q0 79 -93.5 120.5t-188.5 43.5h-92v-363z " />
<glyph unicode="Q" horiz-adv-x="747" d="M36 604q0 276 115 422t223 146q148 0 243 -157t95 -390q0 -138 -32 -260t-66 -176l-30 -51l97 -77q10 -5 10 -20q0 -41 -36 -41l-30 10l-82 67q-67 -102 -169 -103q-133 0 -235.5 166.5t-102.5 463.5zM113 599q0 -223 76.5 -385.5t189.5 -162.5q56 0 102 72l-133 113 q-10 5 -10 25q0 41 36 41q8 0 14 -4l9 -6l2 -5l123 -98q13 15 32 47.5t50 152.5t31 266q0 164 -73 302.5t-188 138.5q-92 0 -176.5 -143.5t-84.5 -353.5z" />
<glyph unicode="R" horiz-adv-x="609" d="M41 46v1060q0 5 1.5 11.5t18 18t47.5 11.5q461 0 460 -236q0 -54 -15 -97t-37 -69t-43.5 -43.5t-37.5 -25.5l-15 -5l148 -625q2 -8 2 -15q0 -31 -38 -31l-35 26l-149 619q-61 -15 -143 -15h-87v-589q0 -41 -41 -41t-36 46zM118 707q15 -3 41 -4q5 0 11 -1q27 0 78 5 q64 5 113 21.5t90 61.5t41 111q0 151 -290 169h-84v-363z" />
<glyph unicode="S" horiz-adv-x="686" d="M36 287q0 36 41 36q36 0 36 -36v-26q0 -15 11.5 -56t34.5 -72t76.5 -56.5t128.5 -25.5q210 0 209 231q0 61 -32 109.5t-81.5 79.5t-106 70.5t-106.5 82t-82 115.5t-32 167q0 136 75.5 201t180.5 65q69 0 114 -32t55 -65l10 -31q2 -8 2 -15q0 -31 -38 -31l-35 26 q-26 72 -108 72q-69 0 -121.5 -45t-52.5 -135q0 -102 45 -172.5t109 -111.5l128 -80q64 -40 108.5 -105.5t44.5 -159.5q0 -312 -292 -313q-164 0 -243 92.5t-79 220.5z" />
<glyph unicode="T" d="M36 1111q0 15 10 24t21 12h10h450q41 0 41 -36q0 -18 -10 -28t-20 -13h-11h-189v-1034q5 -36 -36 -36q-18 0 -28 9t-13 17v10v1034h-184q-41 0 -41 41z" />
<glyph unicode="U" horiz-adv-x="747" d="M36 671q0 141 6.5 253.5t13.5 155.5l5 41q5 26 41 26t37 -37q0 -57 -13 -187.5t-13 -205.5q0 -102 9 -197t33 -211.5t80.5 -187t138.5 -70.5t138 70.5t80.5 185.5t33.5 211t9 199q0 92 -6.5 186.5t-14.5 143.5l-5 49q-2 9 -2 17q0 34 38 34l41 -26q26 -133 26 -455 q0 -131 -17 -246t-54 -219t-105 -165.5t-162 -61.5q-92 0 -161.5 63t-106.5 168t-53.5 221.5t-16.5 244.5z" />
<glyph unicode="V" horiz-adv-x="829" d="M41 1101q-8 46 36 46l36 -26l286 -926l313 926q10 26 41 26q18 0 29 -15q8 -11 8 -24q0 -6 -2 -12l-348 -1070q-5 -26 -41 -26l-35 26z" />
<glyph unicode="W" horiz-adv-x="998" d="M41 1101q-8 46 36 46l36 -26l286 -932l62 241q5 31 41 31q13 0 21.5 -8t11.5 -15l3 -8l61 -241l287 932q5 26 36 26q39 0 38 -29q0 -8 -3 -17l-322 -1075q-5 -26 -36 -26l-36 26l-61 240l-62 -240q-10 -26 -41 -26l-35 26z" />
<glyph unicode="X" horiz-adv-x="721" d="M36 36l5 20l276 517l-276 518q-5 10 -5 20q0 36 41 36q10 0 17.5 -4t10.5 -6l3 -5l250 -477l256 477q5 15 31 15q18 0 29.5 -11.5t11.5 -24.5l-5 -20l-277 -518l277 -517q5 -5 5 -20q0 -13 -11.5 -24.5t-29.5 -11.5l-31 20l-256 472l-250 -472q-10 -20 -31 -20 q-41 0 -41 36z" />
<glyph unicode="Y" horiz-adv-x="721" d="M36 1111q0 13 10 24.5t26 11.5q10 0 19 -4t11 -6l6 -5l256 -477l250 477q5 15 36 15q36 0 36 -36l-5 -20l-282 -528v-527q0 -36 -35 -36q-18 0 -28.5 9t-12.5 17v10v527l-282 528q-5 10 -5 20z" />
<glyph unicode="Z" horiz-adv-x="721" d="M36 36l10 25l538 1009h-507q-41 0 -41 41q0 36 41 36h568q5 1 9 0q32 0 32 -36l-5 -20l-543 -1014h507q36 0 36 -36q0 -20 -9 -30.5t-17 -10.5h-10h-568q-41 0 -41 36z" />
<glyph unicode="[" horiz-adv-x="271" d="M36 -5v1177q0 41 41 41h118q38 0 38 -38t-38 -38h-82v-1101h82q38 0 38 -38.5t-38 -38.5h-118q-15 0 -28 10.5t-13 25.5z" />
<glyph unicode="\" horiz-adv-x="522" d="M41 1162q-1 7 -1 13q0 25 27 33l10 2q22 0 41 -27l363 -1137q1 -7 2 -12q0 -25 -27 -34q-5 -1 -11 -1q-22 0 -41 27q-13 44 -186.5 587.5t-176.5 548.5z" />
<glyph unicode="]" horiz-adv-x="271" d="M38 -2.5q0 38.5 39 38.5h82v1101h-82q-38 0 -38.5 38t38.5 38h118q15 0 28 -12.5t13 -28.5v-1177q0 -15 -13 -25.5t-28 -10.5h-118q-39 0 -39 38.5z" />
<glyph unicode="^" horiz-adv-x="343" d="M27 1167q-2 8 -3 15q0 10 7 16l107 302q8 26 36 26q23 0 31 -26l112 -302q2 -5 2 -10q0 -10 -5 -22q-9 -19 -27 -19q-28 0 -36 31l-77 210l-77 -205q-8 -36 -46 -36q-18 0 -24 20z" />
<glyph unicode="_" horiz-adv-x="814" d="M38 38.5q0 38.5 39 38.5h660q36 0 36 -38.5t-36 -38.5h-660q-39 0 -39 38.5z" />
<glyph unicode="`" horiz-adv-x="261" d="M41 1367q-2 5 -2 11q0 19 22 35q9 3 17 3q22 0 30 -23l112 -302q3 -9 3 -17q0 -22 -23 -30q-9 -3 -17 -2q-22 0 -29 23z" />
<glyph unicode="a" horiz-adv-x="670" d="M36 108q0 228 340 345q97 31 177 44q0 18 1 46v13q0 30 -4 89q-5 74 -16.5 132t-41 104t-72.5 46q-95 0 -168 -111.5t-73 -236.5q0 -36 -36 -36q-41 0 -41 36q0 166 99 295.5t219 129.5q105 0 157.5 -120.5t52.5 -289.5v-558q0 -36 -36 -36q-41 0 -41 36v128l-72 -53 q-44 -32 -146 -84.5t-166 -52.5q-54 0 -86 29.5t-39.5 55.5t-7.5 49zM113 108q0 -56 61 -57q123 3 379 205v164q-18 -3 -47.5 -9.5t-105 -32t-134.5 -57.5t-106 -89t-47 -124z" />
<glyph unicode="b" horiz-adv-x="686" d="M36 36v1075q0 36 41 36q36 0 36 -36v-456l14 35q9 22 39.5 77t64 96t87 75.5t107.5 34.5q82 0 135.5 -72t69 -138.5t15.5 -112.5q0 -289 -114 -482.5t-270 -193.5q-100 3 -148 87v-25q0 -36 -36 -36q-41 0 -41 36zM118 353q0 -54 1 -84.5t9 -79t23 -75.5t46 -47.5 t74 -20.5q100 0 173 116.5t101 248.5t28 239q0 36 -11.5 86t-46 102.5t-85.5 52.5q-92 0 -167.5 -109t-110 -229.5t-34.5 -199.5z" />
<glyph unicode="c" horiz-adv-x="609" d="M36 502q0 184 100 327.5t263 143.5q82 0 128 -47.5t46 -111.5q0 -36 -41 -36q-36 0 -35 36q0 15 -5.5 29.5t-29.5 31t-63 16.5q-128 0 -207 -114t-79 -275q0 -243 89.5 -347t196.5 -104q54 0 76 24.5t22 52.5q0 36 41 36q36 0 35 -36q0 -15 -5 -34.5t-20.5 -49t-53.5 -50 t-95 -20.5q-123 0 -208.5 83.5t-120 197.5t-34.5 247z" />
<glyph unicode="d" horiz-adv-x="655" d="M36 333q0 105 39.5 248t128 267.5t195.5 124.5q38 0 74 -24.5t54 -47.5l16 -25v235q0 36 36 36q18 0 28 -9t13 -17v-10v-1075q0 -36 -41 -36q-33 0 -36 36v220q-5 -10 -13 -29.5t-35 -68t-59 -85.5t-80.5 -68t-99.5 -31q-220 1 -220 359zM113 343q0 -292 133 -292 q92 0 163.5 107.5t102.5 229t31 211.5q0 110 -40 203.5t-104 93.5q-105 0 -195.5 -203.5t-90.5 -349.5z" />
<glyph unicode="e" horiz-adv-x="675" d="M36 630q0 138 59 240.5t187 102.5t215 -96t87 -196q0 -77 -64 -115.5t-156 -38.5l-246 36q0 -46 11.5 -117.5t38.5 -166.5t87 -161.5t144 -66.5q59 0 97.5 52.5t50 118t11.5 142.5q0 15 -2 40l-3 26q0 15 13 25.5t28 10.5q41 0 41 -97q0 -59 -9 -119.5t-32 -127 t-74.5 -107.5t-120.5 -41q-166 0 -264.5 193.5t-98.5 462.5zM113 645q118 -41 256 -41q49 0 79.5 9t42 25.5t14 27t2.5 30.5q0 51 -63 125.5t-162 74.5q-74 0 -116.5 -62.5t-47.5 -126.5z" />
<glyph unicode="f" horiz-adv-x="798" d="M36 435q0 18 12.5 27t23.5 9q5 0 43.5 -10t53.5 -10v122q0 579 343 579q82 0 137 -34.5t77 -89.5t29.5 -93.5t7.5 -74.5l-15 -138q-10 -31 -36 -31q-41 0 -41 41l7 41q8 41 8 103q0 72 -39.5 133t-134.5 61t-157.5 -65t-85.5 -152.5t-23 -192.5l5 -220h72q74 0 153 31 l77 31q15 0 28 -10.5t13 -25.5l-21 -36q-123 -67 -256 -66h-61q0 -31 13 -110.5t25.5 -147.5t12.5 -70q0 -36 -36 -36l-35 26q-56 256 -57 348q-23 0 -53.5 6.5t-48.5 13.5l-21 5q-20 5 -20 36z" />
<glyph unicode="g" horiz-adv-x="737" d="M36 492q0 156 192 318.5t345 162.5q59 0 90 -32t33 -65v-31v-845q0 -13 -1 -32t-16.5 -70.5t-42.5 -91t-84.5 -71.5t-137 -32t-137 25.5t-84.5 57.5t-42 75.5t-16.5 61.5t-1.5 36q0 15 10.5 28t25.5 13t28 -13t13 -28q0 -18 4 -38.5t20.5 -57.5t62.5 -60t118 -23 q92 0 143 55t56 109l6 56v666q-10 -13 -28.5 -32.5t-73.5 -70.5t-108.5 -90.5t-124 -71.5t-131.5 -32q-51 0 -84.5 36t-33.5 87zM113 492q0 -46 41 -47q120 0 293 152.5t173 247.5q0 51 -47 51q-133 0 -296.5 -145.5t-163.5 -258.5z" />
<glyph unicode="h" horiz-adv-x="609" d="M41 36v1075q-5 36 36 36t41 -36v-491q3 15 8 38t22.5 84.5t39.5 107.5t61.5 84.5t83.5 38.5q115 0 175 -255t60 -682q0 -36 -36 -36q-41 0 -40 36q0 333 -46.5 596.5t-112.5 263.5q-92 0 -153.5 -331.5t-61.5 -528.5q0 -15 -13 -25.5t-28 -10.5q-36 0 -36 36z" />
<glyph unicode="i" horiz-adv-x="153" d="M36 36v870q0 15 12.5 28t28 13t26 -12.5t10.5 -28.5v-870q0 -36 -36 -36q-15 0 -28 10.5t-13 25.5zM36 1106v46q0 15 12.5 28t28 13t26 -13t10.5 -28v-46q0 -15 -10.5 -28t-26 -13t-28 13t-12.5 28z" />
<glyph unicode="j" horiz-adv-x="348" d="M-256 -41q0 20 14 30.5t22 10.5q13 0 27 -10t14 -30.5t5 -42.5t21.5 -58t62.5 -57.5t115.5 -21.5t115.5 30.5t62.5 75.5t21.5 70.5t5 43.5v911q0 36 41 36q10 0 23 -7.5t13 -28.5v-911q0 -13 -1 -32t-16.5 -70.5t-42.5 -91t-84.5 -71.5t-136.5 -32q-90 0 -152.5 32 t-87 80.5t-33.5 82t-9 61.5zM230 1106v46q0 15 13 28t28.5 13t25.5 -13t10 -28v-46q0 -15 -10 -28t-25.5 -13t-28.5 13t-13 28z" />
<glyph unicode="k" d="M36 36v1075q0 36 41 36q36 0 36 -36v-491l7.5 38t24 84.5t40 107.5t55 84.5t72.5 38.5l190 164q10 10 25 10q41 0 41 -36l-10 -26l-159 -133q8 -5 19.5 -16.5t39.5 -75.5t51 -153.5t41 -267.5t18 -403q0 -13 -10 -24.5t-26 -11.5q-41 0 -40 36q0 54 -4 152.5t-18 280 t-54 304.5t-99 123q-90 0 -147 -359.5t-57 -500.5q0 -13 -10.5 -24.5t-26 -11.5t-28 10.5t-12.5 25.5z" />
<glyph unicode="l" horiz-adv-x="153" d="M36 36v1075q0 15 12.5 25.5t28.5 10.5q36 0 36 -36v-1075q0 -36 -36 -36q-15 0 -28 10.5t-13 25.5z" />
<glyph unicode="m" horiz-adv-x="988" d="M41 36v870q0 41 36 41q41 0 41 -41v-138q13 23 36 57.5t89.5 91t130.5 56.5q128 0 153 -249l5 -53q3 13 9.5 33t29.5 71.5t48.5 91t68 73t85.5 33.5q69 0 111.5 -96t52.5 -234.5t10 -276.5t-7 -233l-8 -97q-5 -36 -41 -36t-36 36q0 3 4 56.5t7.5 149.5t3.5 203 q0 159 -25.5 305t-76.5 146q-82 0 -159 -225.5t-77 -337.5q0 -41 -40 -41q-13 0 -24.5 11.5t-11.5 29.5q0 5 1 50t1 89v108q0 63 -5 115.5t-12.5 99.5t-22 74t-34.5 27q-67 0 -133.5 -69t-99.5 -138l-33 -69v-584q0 -36 -41 -36q-39 3 -36 36z" />
<glyph unicode="n" horiz-adv-x="573" d="M41 36v870q-5 41 36 41q18 0 28 -10t13 -21v-10v-133q13 23 36 56.5t89.5 88.5t130.5 55q164 0 164 -410q0 -136 -8 -267.5t-15 -195.5l-8 -64q0 -36 -41 -36q-36 0 -36 36q0 5 15.5 163.5t15.5 281.5q0 415 -87 415q-61 0 -125.5 -69t-97.5 -138l-33 -69v-584 q0 -36 -41 -36q-39 3 -36 36z" />
<glyph unicode="o" horiz-adv-x="629" d="M36 497q0 215 89.5 345.5t202.5 130.5q120 0 193 -136t73 -340q0 -215 -68 -369t-198 -154q-141 0 -216.5 133.5t-75.5 389.5zM113 497q0 -445 215 -446q87 0 138 130.5t51 315.5q0 159 -51 279t-138 120q-82 0 -148.5 -133t-66.5 -266z" />
<glyph unicode="p" horiz-adv-x="686" d="M36 -256v1162q0 41 41 41q18 0 27 -10t9 -21v-10v-20q51 87 138 87q102 0 184 -70.5t127 -178t66.5 -220t21.5 -217.5q0 -143 -71.5 -215t-153.5 -72q-56 0 -108.5 29.5t-88.5 73t-63 87t-40 71.5l-12 31v-548q5 -41 -36 -41q-18 0 -28.5 10.5t-12.5 20.5v10zM118 666 q0 -228 99.5 -408.5t207.5 -180.5q49 0 98.5 51t49.5 159q0 138 -37 275t-112.5 235.5t-167.5 98.5q-59 0 -98.5 -64t-39.5 -166z" />
<glyph unicode="q" horiz-adv-x="660" d="M36 635q0 36 7.5 80.5t27 108.5t66.5 106.5t114 42.5q84 0 157 -70.5t104 -139.5l31 -72v215q0 41 36 41q18 0 28 -10t13 -21v-10v-1162q0 -41 -41 -41q-18 0 -27 10.5t-9 20.5v10v333q-56 -77 -144 -77q-138 0 -250.5 202.5t-112.5 432.5zM113 614q0 -159 84.5 -348 t201.5 -189q10 0 23 3.5t36 19t41 42.5t31 82t13 129q0 187 -92.5 365t-199.5 178q-64 0 -101 -82t-37 -200z" />
<glyph unicode="r" horiz-adv-x="593" d="M36 26v10v870q0 41 41 41q18 0 27 -10t9 -21v-10v-138q13 23 34.5 57.5t88 91t133.5 56.5q44 0 87 -27t66 -55l21 -26q10 -10 10 -30q0 -13 -10.5 -24.5t-25.5 -11.5l-25 10q-67 87 -123 87q-61 0 -125.5 -69t-97.5 -138l-33 -69v-584q5 -36 -36 -36q-18 0 -28 9t-13 17z " />
<glyph unicode="s" horiz-adv-x="593" d="M41 233q0 31 33 31q31 0 31 -31v-19q0 -12 10 -41.5t29.5 -52.5t64 -41t106.5 -18q72 0 110 28.5t44.5 58t6.5 80.5q0 61 -37 106t-91 78t-107.5 71.5t-90.5 105t-37 161.5q0 113 66.5 168t155.5 55q115 0 149 -100l2 -8q8 -38 -30 -38l-31 23q-20 59 -90 59 q-56 0 -94.5 -38.5t-38.5 -112.5q0 -84 37 -143t91 -94t109 -67t92 -87t37 -134q0 -110 -61.5 -185.5t-197 -75.5t-202 76.5t-66.5 184.5z" />
<glyph unicode="t" horiz-adv-x="517" d="M-77 717q0 18 13 27t23 9t51 -10.5t51 -10.5q0 41 14.5 137l26.5 170l16 77q10 31 41 31q36 0 36 -41q0 -3 -14.5 -77t-28.5 -166t-14 -141h67q54 0 107.5 14t81.5 27l26 15q10 5 20 5q41 0 41 -41l-20 -30q-118 -67 -251 -67l-77 5q-5 -41 -5 -97q0 -212 64 -344 t202 -132q41 0 41 -41q0 -13 -11.5 -24.5t-29.5 -11.5q-31 0 -61.5 5t-85.5 34.5t-94.5 81t-70.5 159t-31 252.5l5 123l-112 26q-21 5 -21 36z" />
<glyph unicode="u" horiz-adv-x="573" d="M36 379q0 138 7.5 270t15.5 196l8 61q5 41 41 41q18 0 26.5 -12.5t8.5 -23.5q0 -5 -15 -163.5t-15 -281.5q0 -415 87 -415q61 0 125 68t97 137l34 67v588q0 36 41 36q38 -3 35 -36v-870q5 -41 -35 -41q-18 0 -28.5 10t-12.5 21v10v133q-13 -23 -36 -56.5t-89.5 -88.5 t-130.5 -55t-104 77t-50 159t-10 169z" />
<glyph unicode="v" horiz-adv-x="701" d="M36 906q0 20 14 30.5t27 10.5t22 -7.5t11 -15.5l3 -8l235 -752l236 747q5 36 40.5 36t35.5 -41v-15l-271 -850q-5 -41 -41 -41q-13 0 -23 10t-13 21l-5 10l-266 855q-5 5 -5 10z" />
<glyph unicode="w" horiz-adv-x="803" d="M36 911q0 20 12.5 28t23.5 8q15 0 25.5 -9t12.5 -16l3 -11l169 -711l82 332q5 41 40 41q13 0 22 -10t12 -20l2 -11l82 -332l169 711q5 36 41 36t36 -36l-205 -870q-10 -41 -41 -41q-15 0 -25.5 10t-12.5 21l-3 10l-77 328l-81 -328q-5 -41 -41 -41q-13 0 -22 10t-12 21 l-2 10q-210 844 -210 870z" />
<glyph unicode="x" horiz-adv-x="665" d="M36 36l5 20l246 415l-246 415q-5 10 -5 25q0 10 11.5 23t29.5 13l31 -20l225 -379l225 379q10 20 31 20q18 0 29.5 -11.5t11.5 -24.5l-10 -25l-241 -415l241 -415q10 -10 10 -20t-10.5 -23t-30.5 -13q-10 0 -18 4t-10 6l-3 5l-225 379l-225 -379q-10 -15 -31 -15 q-18 0 -29.5 11.5t-11.5 24.5z" />
<glyph unicode="y" horiz-adv-x="583" d="M36 -163.5q0 36.5 36 36.5q5 0 10 -1h225q56 0 107.5 41t51.5 123v138q-13 -23 -36 -56.5t-89.5 -88.5t-130.5 -55q-172 0 -173 452q0 85 7 186q8 166 28 299q10 36 41 36q13 0 24 -10t11 -26q0 -3 -6 -69t-14 -171t-10 -195q-1 -24 -1 -48q0 -131 24 -244 q28 -133 69 -133q59 0 123 68t97 137l36 67v588q0 36 36 36q18 0 28 -9t13 -16v-11v-875q0 -10 -2.5 -25.5t-17 -56.5t-37.5 -71.5t-70 -56.5t-109 -26h-225q-5 -1 -10 0q-36 0 -36 36.5z" />
<glyph unicode="z" horiz-adv-x="542" d="M36 36l10 31l358 803h-332q-36 0 -36 36q0 15 9 25.5t15.5 13t11.5 2.5h394q36 -5 36 -41l-5 -25l-364 -804h328q41 0 41 -41q0 -15 -10.5 -24t-20.5 -12h-10h-389q-36 0 -36 36z" />
<glyph unicode="{" horiz-adv-x="496" d="M0 568q0 13 7.5 24.5t15.5 16.5l8 5q5 3 14 7t30.5 20.5t38.5 37t31 56.5t14 79q0 46 -23 109t-23 137q0 84 67.5 139t135.5 70.5t129 15.5q18 0 29.5 -10t14.5 -21l3 -10q-5 -46 -47 -46q-61 0 -150.5 -30.5t-89.5 -97.5q0 -54 20.5 -139.5t20.5 -121.5 q-3 -143 -108 -236q13 -10 32 -30.5t50 -83t31 -126.5q0 -72 -20.5 -129.5t-20.5 -126.5q0 -46 60 -75.5t119 -37.5l62 -5q46 -5 46 -46t-46 -46q-36 0 -81 7.5t-107.5 27t-103.5 68t-41 117.5q0 77 20.5 136t20.5 110q0 131 -115 189l-8 5q-36 10 -36 41z" />
<glyph unicode="|" horiz-adv-x="153" d="M36 -282v1582q0 15 12.5 25.5t28.5 10.5q36 0 36 -36v-1582q0 -15 -10.5 -28t-26 -13t-28 13t-12.5 28z" />
<glyph unicode="}" horiz-adv-x="496" d="M0 1239q3 44 46 46q33 0 78 -7.5t107.5 -27t105 -68t42.5 -117.5q0 -72 -23 -130.5t-23 -110.5q0 -44 12.5 -79.5t32 -57t38.5 -37t32 -20.5l13 -5q36 -5 36 -41q0 -13 -8 -24.5t-15 -16.5l-8 -5q-5 -3 -14 -7t-31 -19t-38.5 -35.5t-30.5 -58t-14 -80.5q0 -46 23 -109 t23 -137q0 -84 -68 -139t-135.5 -70.5t-129.5 -15.5q-18 0 -29.5 10t-13.5 21l-3 10q0 46 46 46q31 0 81 9t105 42t55 82q0 51 -23 135.5t-23 120.5q0 69 28 128t56 82l28 26q-13 10 -32 29t-49.5 82t-30.5 129q0 72 20.5 129.5t20.5 126.5q0 46 -60.5 77t-118.5 38l-62 8 q-46 0 -46 41z" />
<glyph unicode="~" horiz-adv-x="573" d="M36 522q0 18 6.5 40t42 50t94.5 28q44 0 77 -24.5t48.5 -52.5t41 -52.5t58.5 -24.5q28 0 42.5 13t14.5 23q0 41 36 41q41 0 41 -41q0 -36 -36 -74t-108 -38q-46 0 -78 24t-48.5 52.5t-39.5 52.5t-49 24q-67 0 -66 -41q0 -10 -9 -23t-27 -13q-20 0 -30.5 13t-10.5 23z" />
<glyph unicode="&#xa1;" horiz-adv-x="153" d="M36 -205v1121q0 15 12.5 25.5t28.5 10.5q36 0 36 -36v-1121q0 -15 -10.5 -28t-26 -13t-28 13t-12.5 28zM36 1034v118q0 15 12.5 25.5t28.5 10.5q36 0 36 -36v-118q0 -36 -36 -36q-15 0 -28 10.5t-13 25.5z" />
<glyph unicode="&#xa2;" horiz-adv-x="609" d="M36 502q0 148 69 277.5t187 172.5v128q0 36 38.5 36t38.5 -36v-107h30q79 0 126.5 -47.5t47.5 -106.5q0 -13 -11.5 -24.5t-29.5 -11.5q-36 0 -35 36q0 23 -22 50t-76 27h-30v-850h25q54 0 78.5 25.5t24.5 51.5q0 36 35 36q15 0 28 -10.5t13 -25.5q0 -13 -5 -33.5 t-20.5 -50t-55 -50t-93.5 -20.5h-30v-107q0 -36 -38.5 -36t-38.5 36v128q-128 46 -192 190.5t-64 321.5zM113 502q0 -330 179 -430v798q-82 -46 -130.5 -147t-48.5 -221z" />
<glyph unicode="&#xa5;" horiz-adv-x="721" d="M36 1111q0 13 10 24.5t26 11.5q10 0 19 -4t11 -6l6 -5l256 -477l250 477q5 15 36 15q36 0 36 -36l-5 -20l-282 -528v-25h133q36 0 36 -38.5t-36 -38.5h-5h-128v-51h133q36 0 36 -38.5t-36 -38.5h-5h-128v-297q0 -36 -35 -36q-18 0 -28.5 9t-12.5 17v10v297h-118 q-38 0 -38.5 38.5t38.5 38.5h118v51h-118q-38 0 -38.5 38.5t38.5 38.5h118v25l-282 528q-5 10 -5 20z" />
<glyph unicode="&#xa8;" horiz-adv-x="742" d="M128 1229q0 28 22 52.5t55 24.5q31 0 54 -24.5t23 -52.5q0 -36 -23 -59t-54 -23q-77 0 -77 82zM461 1224q0 31 24 53.5t53 22.5q33 0 54.5 -23t21.5 -53q0 -36 -20.5 -56.5t-55.5 -20.5q-28 0 -52.5 22t-24.5 55z" />
<glyph unicode="&#xa9;" horiz-adv-x="824" d="M128 1254q0 120 82 203.5t199.5 83.5t202 -84.5t84.5 -202.5q0 -115 -84.5 -198t-202 -83t-199.5 83t-82 198zM154 1254q0 -102 76.5 -179t179.5 -77q108 0 182 75.5t74 180.5q0 108 -74.5 182t-181.5 74q-105 0 -180.5 -74t-75.5 -182zM292 1270q0 72 39.5 128t103.5 56 q31 0 49 -18t18 -43q0 -15 -15.5 -15.5t-15.5 15.5q0 31 -36 30q-51 0 -81.5 -46t-30.5 -107q0 -95 33 -137t74 -42t41 30q0 10 15.5 10.5t15.5 -10t-2.5 -22t-19.5 -25.5t-45 -14q-74 0 -108.5 61.5t-34.5 148.5z" />
<glyph unicode="&#xaa;" horiz-adv-x="670" d="M220 1106q0 54 50 92t99 51l51 11v26q0 138 -51 137q-36 0 -64.5 -42t-28.5 -91q0 -15 -15 -15t-15 10q0 67 37 115.5t86 48.5q77 0 76 -154v-215q0 -15 -10 -15q-15 0 -15 15v46q-92 -72 -149 -71q-51 0 -51 51zM251 1106q0 -20 20.5 -20.5t57.5 19t65 37.5l26 20v67 q-18 -3 -46 -10.5t-75.5 -39.5t-47.5 -73z" />
<glyph unicode="&#xad;" horiz-adv-x="481" d="M38 724.5q0 38.5 39 38.5h-3h3h2h3h2h3h3h2h3h2h3h2h3h3h2h3h2h3h2h3h2h3h3h2h3h2h3h2h3h2h3h3h2h3h2h3h2h3h3h2h3h2h3h2h3h2h3h3h2h3h2h3h2h3h2h3h3h2h3h2h3h2h3h3h2h3h2h3h2h3h2h3h3h2h3h2h3h2h3h2h3h3h2h3h2h3h2h3h3h2h3h2h3h2h3h2h3h3h2h3h2h3h2h3h2h3h3h2h3h2h3h2h3 h3h2h3h2h3h2h3h25q36 0 36 -38.5t-36 -38.5h-327q-39 0 -39 38.5z" />
<glyph unicode="&#xae;" horiz-adv-x="824" d="M128 1254q0 120 82 203.5t199.5 83.5t202 -84.5t84.5 -202.5q0 -115 -84.5 -198t-202 -83t-199.5 83t-82 198zM154 1254q0 -102 76.5 -179t179.5 -77q108 0 182 75.5t74 180.5q0 108 -74.5 182t-181.5 74q-105 0 -180.5 -74t-75.5 -182zM312 1065v384q0 15 26 15 q169 0 169 -87q0 -67 -56 -87l56 -225q5 -20 -15 -21l-11 11l-56 225q-20 -5 -51 -5h-31v-215q0 -15 -15 -16zM343 1306q5 3 36 -3q6 -1 13 -1q25 0 53 15q36 19 36 60q0 31 -34.5 46.5t-67.5 15.5h-36v-133z" />
<glyph unicode="&#xb0;" horiz-adv-x="440" d="M36 1254.5q0 76.5 53.5 130.5t130.5 54q74 0 126.5 -54t52.5 -130.5t-52.5 -128t-126.5 -51.5q-77 0 -130.5 51.5t-53.5 128zM113 1254.5q0 -43.5 30.5 -75.5t76.5 -32q41 0 72 32t31 75.5t-31 75.5t-72 32q-46 0 -76.5 -32t-30.5 -75.5z" />
<glyph unicode="&#xb1;" horiz-adv-x="532" d="M38 724.5q0 38.5 39 38.5h379q36 0 36 -38.5t-36 -38.5h-379q-39 0 -39 38.5zM41 1029q0 36 36 36h148v148q0 15 13 28t28.5 13t25.5 -12.5t10 -28.5v-148h149q15 0 28 -10.5t13 -25.5q0 -41 -41 -41h-149v-148q0 -36 -36 -36q-15 0 -28 10t-13 26v148h-148q-36 0 -36 41 z" />
<glyph unicode="&#xb2;" horiz-adv-x="327" d="M36 701l5 11q174 276 174 379q0 51 -26 51q-64 -3 -122 -133q0 -10 -15.5 -10.5t-15.5 15.5l5 10q5 15 18 41t51 66.5t79 40.5q56 0 57 -76q0 -125 -164 -379h189q15 0 16 -16q0 -10 -4 -12.5t-7 -2.5h-5h-220q-15 0 -15 15z" />
<glyph unicode="&#xb3;" horiz-adv-x="256" d="M-41 727q0 15 15 15q20 0 21 -15q0 -41 46 -41q44 0 91 48.5t47 151.5q0 56 -15.5 84t-25.5 31t-25 3q-18 0 -42.5 -10.5t-39.5 -20.5l-16 -10h-5q-15 0 -15 15l5 15l123 123h-113q-15 0 -15 16q0 8 4 11.5t6 3.5h5h154q15 0 15 -15l-5 -11l-87 -87q20 5 31 5 q44 0 68 -38t26.5 -64t2.5 -46q0 -125 -59 -180.5t-110 -55.5q-44 0 -65.5 20.5t-21.5 51.5z" />
<glyph unicode="&#xb4;" horiz-adv-x="261" d="M41 1091l113 302q8 23 29 23q7 0 17 -3q22 -16 22 -35q0 -5 -2 -11l-112 -302q-8 -23 -30 -23q-7 0 -17 2q-23 8 -23 30q0 8 3 17z" />
<glyph unicode="&#xb6;" horiz-adv-x="844" d="M36 901q0 230 399 246h77h256q38 0 38 -38.5t-38 -38.5h-46v-1034q0 -38 -38.5 -38.5t-38.5 38.5v1034h-77v-1034q0 -36 -41 -36q-33 0 -35 36v594q-18 -3 -49 -4h-9q-32 0 -101 8q-79 9 -139.5 32t-109 84t-48.5 151z" />
<glyph unicode="&#xb7;" horiz-adv-x="204" d="M26 609q0 28 21.5 52.5t54.5 24.5q26 0 51.5 -25.5t25.5 -51.5q0 -33 -24 -55t-53 -22q-36 0 -56 20.5t-20 56.5z" />
<glyph unicode="&#xb8;" horiz-adv-x="317" d="M26 -333q0 36 35 36q13 0 42.5 -13t60.5 -13q26 0 38.5 24.5t12.5 47.5v26v15q0 82 -51 82q-20 0 -43.5 -13t-33.5 -13q-36 0 -36 41v118q0 41 36 41q41 0 41 -41v-61q15 5 46 5q23 0 46 -10.5t47.5 -51.5t24.5 -107q0 -100 -36 -139.5t-77 -39.5q-46 0 -80.5 9t-47.5 16 l-10 10q-15 11 -15 31z" />
<glyph unicode="&#xb9;" horiz-adv-x="261" d="M36 701q0 8 4 12t6 4h5h62v363l-36 -51q0 -10 -10 -10q-15 0 -16 15v5l62 103q5 5 15 5q15 0 15 -15v-415h67q15 0 15 -16q0 -8 -3.5 -11.5t-6.5 -3.5h-5h-159q-15 0 -15 15z" />
<glyph unicode="&#xba;" horiz-adv-x="629" d="M36 497q0 215 89.5 345.5t202.5 130.5q120 0 193 -136t73 -340q0 -215 -68 -369t-198 -154q-141 0 -216.5 133.5t-75.5 389.5zM113 497q0 -445 215 -446q87 0 138 130.5t51 315.5q0 159 -51 279t-138 120q-82 0 -148.5 -133t-66.5 -266z" />
<glyph unicode="&#xbc;" horiz-adv-x="798" d="M36 681q0 -8 4 -11.5t6 -3.5h5h169q20 0 21 15l-21 15h-66v451q0 15 -16 15l-15 -5l-72 -107v-11q0 -15 16 -15l15 10l41 57v-395h-72q-15 0 -15 -15zM271 686l159 492q6 12 14 11q3 0 7 -1q15 0 15 -21q-3 -3 -76 -229t-83 -262q-10 -10 -25 -10q-11 10 -11 20zM497 906 l51 246q5 10 20.5 10t15.5 -15v-5l-52 -220h164v225q0 15 21 15q8 0 11.5 -3.5t3.5 -6.5v-5v-225h10q15 0 15.5 -15.5t-15.5 -15.5h-10v-210q0 -15 -15 -15l-21 15v210h-179q-20 0 -20 15z" />
<glyph unicode="&#xbd;" horiz-adv-x="798" d="M36 701q0 -8 4 -11.5t6 -3.5h5h169q15 0 16 15q0 8 -4 12t-7 4h-5h-66v450q0 15 -16 16l-15 -5l-72 -108v-10q0 -15 16 -16l15 11l36 56v-394h-67q-15 -1 -15 -16zM271 707l159 491q0 14 9 14q5 0 12 -4q5 0 8.5 -6t1.5 -14q0 -5 -74.5 -237t-84.5 -255q0 -10 -20 -10 q-5 0 -9.5 6.5t-1.5 14.5zM497 701l20 -15h225q15 0 16 15q0 8 -4 12t-6 4h-6h-199q174 266 174 394q0 87 -62 87q-41 0 -79 -39.5t-56 -78.5l-18 -41q-5 0 -5 -10q0 -15 15 -15l15 10q5 15 17 38t46.5 61.5t65 38.5t30.5 -56q0 -49 -46 -147.5t-92 -172.5l-46 -74 q-5 -6 -5 -11z" />
<glyph unicode="&#xbe;" horiz-adv-x="844" d="M36 758q0 -31 21.5 -51.5t65.5 -20.5q54 0 114 52.5t60 183.5q0 154 -102 153l-31 -5l92 87v10q0 10 -4 13t-6 3h-5h-154q-15 0 -15 -15.5t15 -15.5h113l-123 -123q-5 -5 -5 -15q0 -15 15 -16h10q51 41 98 41h11q4 0 15.5 -6t19 -16.5t14 -35t6.5 -59.5 q0 -105 -47.5 -155t-95.5 -50q-46 0 -46 41q0 15 -21 15q-15 0 -15 -15zM328 717l158 481q0 14 10 14q5 0 11 -4q10 0 10 -20q-3 -3 -73 -224.5t-80 -256.5q-12 -12 -18 -12q-2 0 -3 1q-15 1 -15 21zM553 932l51 240q0 10 15.5 10.5t15.5 -15.5v-5l-46 -215h159v220 q0 15 15 16q10 0 12.5 -4t2.5 -7v-5v-220h16q15 0 15 -15.5t-15 -15.5h-16v-204q0 -15 -15 -16q-8 0 -11.5 4t-3.5 7v5v204h-180q-15 1 -15 16z" />
<glyph unicode="&#xbf;" horiz-adv-x="512" d="M36 236q0 108 15.5 193.5t37 132.5t48.5 80.5t46 43.5t32 10v174q0 36 36 36q41 0 41 -36v-204q0 -15 -11.5 -25.5t-24.5 -10.5q-54 0 -98.5 -104t-44.5 -290q0 -189 43.5 -294.5t99.5 -105.5q72 0 105 139.5t33 254.5q0 41 36 41q41 0 41 -107q0 -404 -220 -405 q-90 0 -152.5 123.5t-62.5 353.5zM215 1034v123q0 36 36 36q41 0 41 -36v-123q0 -36 -41 -36q-36 0 -36 36z" />
<glyph unicode="&#xc0;" horiz-adv-x="824" d="M36 36l5 15l333 1070q10 26 41 26l36 -26l337 -1075v-10q0 -13 -11.5 -24.5t-28.5 -11.5l-36 26l-144 466h-307l-148 -466q-10 -26 -36 -26q-20 0 -30.5 13t-10.5 23zM261 1582q-6 11 -6 20q0 19 27 26q11 6 20 6q19 0 26 -26l107 -302q18 -26 -20 -46q-38 -10 -46 25z M282 568h261l-128 415z" />
<glyph unicode="&#xc1;" horiz-adv-x="824" d="M36 36l5 15l333 1070q10 26 41 26l36 -26l337 -1075v-10q0 -13 -11.5 -24.5t-28.5 -11.5l-36 26l-144 466h-307l-148 -466q-10 -26 -36 -26q-20 0 -30.5 13t-10.5 23zM282 568h261l-128 415zM384 1306l113 302q7 26 26 26q9 0 20 -6q23 -8 23 -30q0 -7 -3 -16l-112 -297 q-6 -28 -31 -28q-7 0 -16 3q-22 16 -22 35q0 6 2 11z" />
<glyph unicode="&#xc2;" horiz-adv-x="824" d="M36 36l5 15l333 1070q10 26 41 26l36 -26l337 -1075v-10q0 -13 -11.5 -24.5t-28.5 -11.5l-36 26l-144 466h-307l-148 -466q-10 -26 -36 -26q-20 0 -30.5 13t-10.5 23zM266 1306l113 302q8 26 31 25q28 0 35 -25l108 -302q4 -6 4 -14t-5 -18q-9 -19 -25 -20q-33 0 -41 31 l-76 210l-72 -205q-15 -36 -51 -36q-13 0 -19 20q-4 11 -4 19q0 7 2 13zM282 568h261l-128 415z" />
<glyph unicode="&#xc3;" horiz-adv-x="824" d="M36 36l5 15l333 1070q10 26 41 26l36 -26l337 -1075v-10q0 -13 -11.5 -24.5t-28.5 -11.5l-36 26l-144 466h-307l-148 -466q-10 -26 -36 -26q-20 0 -30.5 13t-10.5 23zM164 1290q0 18 6.5 40t42 50t94.5 28q44 0 76 -24.5t47 -52.5t39.5 -52.5t57.5 -24.5q28 0 42.5 13 t14.5 23t9 25.5t27 15.5q41 0 40 -41q0 -36 -34.5 -74t-103.5 -38q-72 0 -128 76.5t-92 76.5q-61 0 -61 -41q0 -10 -10.5 -23t-30.5 -13q-36 0 -36 36zM282 568h261l-128 415z" />
<glyph unicode="&#xc4;" horiz-adv-x="824" d="M36 36l5 15l333 1070q10 26 41 26l36 -26l337 -1075v-10q0 -13 -11.5 -24.5t-28.5 -11.5l-36 26l-144 466h-307l-148 -466q-10 -26 -36 -26q-20 0 -30.5 13t-10.5 23zM169 1336q0 28 21.5 52.5t55.5 24.5q31 0 54 -24.5t23 -52.5q0 -36 -23.5 -59t-53.5 -23q-77 0 -77 82 zM282 568h261l-128 415zM502 1331q0 31 24 54t53 23q33 0 54.5 -23t21.5 -54q0 -36 -20.5 -56.5t-55.5 -20.5q-28 0 -52.5 22t-24.5 55z" />
<glyph unicode="&#xc5;" horiz-adv-x="824" d="M36 36l5 15l333 1070q10 26 41 26l36 -26l337 -1075v-10q0 -13 -11.5 -24.5t-28.5 -11.5l-36 26l-144 466h-307l-148 -466q-10 -26 -36 -26q-20 0 -30.5 13t-10.5 23zM271 1398q0 56 41 97t98 41q59 0 101 -41t42 -97q0 -61 -42.5 -102.5t-101 -41.5t-98.5 41.5 t-40 102.5zM282 568h261l-128 415zM328 1398q0 -36 24 -61.5t57.5 -25.5t58 25.5t24.5 61.5q0 31 -24.5 56.5t-58 25.5t-57.5 -25.5t-24 -56.5z" />
<glyph unicode="&#xc6;" horiz-adv-x="942" d="M36 36l5 15l333 1070q10 26 41 26h455q36 0 36 -36q0 -18 -9 -28t-16 -13h-11h-419v-312h240q36 0 36 -36q0 -18 -9 -28t-17 -13h-10h-240v-604h419q36 0 36 -41q-2 -36 -32 -36h-4h-455q-18 0 -29.5 11.5t-11.5 24.5v456h-113l-148 -466q-10 -26 -36 -26q-20 0 -30.5 13 t-10.5 23zM282 568h92v292z" />
<glyph unicode="&#xc7;" horiz-adv-x="696" d="M36 568q0 266 120 435t300 169q100 0 149.5 -55t49.5 -119q0 -36 -35 -35q-20 0 -30.5 10t-10.5 20v11q0 3 -1.5 9t-8 22.5t-18 28t-38.5 22t-62 10.5q-151 0 -244.5 -160t-93.5 -368q0 -210 94.5 -363.5t258.5 -153.5q56 0 84.5 29.5t28.5 67.5q5 36 41 36q33 0 35 -36 q0 -8 -1 -18t-10 -38t-24.5 -50t-51.5 -42t-82 -26v-30q20 5 52 5q23 0 46 -10.5t47 -51.5t24 -107q0 -97 -37 -138t-80.5 -41t-78 9t-47.5 16l-13 10q-15 10 -15 31q0 36 36 36q13 0 45 -13t62 -13q26 0 39 24.5t13 47.5v26v15q0 82 -52 82q-23 0 -44.5 -13t-31.5 -13 q-41 0 -41 41v93q-159 23 -266.5 185t-107.5 403z" />
<glyph unicode="&#xc8;" d="M36 36q0 -13 11.5 -24.5t29.5 -11.5h455h11q5 0 15 9t10 27t-9 28t-16 13h-11h-419v604h240q36 0 36 41q0 33 -36 36h-240v312h419q36 0 36 41q0 33 -36 36h-455q-18 0 -28.5 -9t-12.5 -17v-10v-1075zM164 1582q-6 11 -6 20q0 19 26 26q11 6 21 6q19 0 25 -26l108 -302 q6 -8 6 -16q0 -16 -27 -30q-9 -2 -15 -3q-25 0 -31 28z" />
<glyph unicode="&#xc9;" d="M36 36v1075q0 36 41 36h455q36 0 36 -36q0 -18 -9 -28t-16 -13h-11h-419v-312h240q36 0 36 -36q0 -18 -9 -28t-16 -13h-11h-240v-604h419q36 0 36 -41q-2 -36 -31 -36h-5h-455q-18 0 -29.5 11.5t-11.5 24.5zM215 1306l108 302q7 26 25 26q9 0 21 -6q26 -7 26 -26 q0 -9 -6 -20l-107 -297q-6 -28 -31 -28q-7 0 -15 3q-26 14 -27 30q0 8 6 16z" />
<glyph unicode="&#xca;" d="M36 36q0 -13 11.5 -24.5t29.5 -11.5h455h11q5 0 15 9t10 27t-9 28t-16 13h-11h-419v604h240q36 0 36 41q0 33 -36 36h-240v312h419q36 0 36 41q0 33 -36 36h-455q-18 0 -28.5 -9t-12.5 -17v-10v-1075zM155 1275q-2 8 -3 14q0 10 7 17l107 302q8 26 36 25q23 0 31 -25 l112 -302q2 -5 2 -11q0 -10 -5 -21q-9 -19 -27 -20q-28 0 -36 31l-77 210l-77 -205q-8 -36 -46 -36q-18 1 -24 21z" />
<glyph unicode="&#xcb;" d="M36 36q0 -13 11.5 -24.5t29.5 -11.5h455h11q5 0 15 9t10 27t-9 28t-16 13h-11h-419v604h240q36 0 36 41q0 33 -36 36h-240v312h419q36 0 36 41q0 33 -36 36h-455q-18 0 -28.5 -9t-12.5 -17v-10v-1075zM56 1336q0 28 22 52.5t55 24.5q31 0 54 -24.5t23 -52.5 q0 -36 -23 -59t-54 -23q-77 0 -77 82zM389 1331q0 31 24.5 54t52.5 23q33 0 55 -23t22 -54q0 -36 -20.5 -56.5t-56.5 -20.5q-28 0 -52.5 22t-24.5 55z" />
<glyph unicode="&#xcc;" d="M36 1111q0 -18 10 -28t21 -13h10h184v-993h-184q-41 0 -41 -41q0 -15 10 -24t21 -12h10h450q41 0 41 36q0 18 -10 28t-20 13h-11h-189v993h189q41 0 41 41q0 18 -10 27t-20 9h-11h-450q-41 0 -41 -36zM159 1582q-2 5 -2 11q0 19 22 35q9 3 17 3q22 0 29 -23l113 -302 q3 -9 2 -17q0 -22 -23 -29q-9 -3 -16 -3q-22 0 -30 23z" />
<glyph unicode="&#xcd;" d="M36 36q0 18 10 28t21 13h10h184v993h-184q-41 0 -41 41q0 36 41 36h450q5 1 9 0q32 0 32 -36q0 -41 -41 -41h-189v-993h189q41 0 41 -41q0 -36 -41 -36h-450q-41 0 -41 36zM261 1306l113 302q8 23 30 23q7 0 16 -3q22 -16 22 -35q0 -5 -2 -11l-112 -302q-8 -23 -30 -23 q-7 0 -16 3q-23 8 -23 29q-1 8 2 17z" />
<glyph unicode="&#xce;" d="M36 1111q0 -18 10 -28t21 -13h10h184v-993h-184q-41 0 -41 -41q0 -15 10 -24t21 -12h10h450q41 0 41 36q0 18 -10 28t-20 13h-11h-189v993h189q41 0 41 41q0 18 -10 27t-20 9h-11h-450q-41 0 -41 -36zM155 1275q-2 8 -3 14q0 10 7 17l107 302q8 26 36 25q23 0 31 -25 l112 -302q2 -5 2 -11q0 -10 -5 -21q-9 -19 -27 -20q-28 0 -36 31l-77 210l-77 -205q-8 -36 -46 -36q-18 1 -24 21z" />
<glyph unicode="&#xcf;" d="M36 1111q0 -18 10 -28t21 -13h10h184v-993h-184q-41 0 -41 -41q0 -15 10 -24t21 -12h10h450q41 0 41 36q0 18 -10 28t-20 13h-11h-189v993h189q41 0 41 41q0 18 -10 27t-20 9h-11h-450q-41 0 -41 -36zM56 1336q0 28 22 52.5t55 24.5q31 0 54 -24.5t23 -52.5 q0 -36 -23 -59t-54 -23q-77 0 -77 82zM389 1331q0 31 24.5 54t52.5 23q33 0 55 -23t22 -54q0 -36 -20.5 -56.5t-56.5 -20.5q-28 0 -52.5 22t-24.5 55z" />
<glyph unicode="&#xd0;" horiz-adv-x="680" d="M-125 724.5q0 38.5 38 38.5h128v348q-5 36 36 36q18 0 28 -9t13 -17v-10v-26q133 87 292 87q118 0 174 -94.5t56 -248.5q0 -340 -165 -584.5t-398 -244.5q-36 0 -36 36v650h-128q-38 0 -38 38.5zM118 77q172 0 308.5 234t136.5 539q0 49 -7.5 96t-41 98.5t-89.5 51.5 q-184 -3 -307 -98v-235h123q36 0 35.5 -38.5t-35.5 -38.5h-5h-118v-609z" />
<glyph unicode="&#xd1;" horiz-adv-x="614" d="M36 36v1075q0 36 41 36q10 0 17.5 -4t10.5 -6l3 -5l389 -912v891q0 36 41 36q33 0 35 -36v-1075q0 -41 -35 -41l-36 20l-389 907v-886v-10q0 -5 -10.5 -15.5t-30.5 -10.5q-36 0 -36 36zM51 1290q0 15 6.5 36t42.5 49t95 28q44 0 77 -23t48 -51.5t41 -51.5t59 -23 q28 0 42 13t14 23q0 36 36 36q18 0 29.5 -11.5t11.5 -24.5q0 -38 -36 -75t-107.5 -37t-125.5 74t-89 74q-67 0 -67 -36q0 -10 -9 -23t-27 -13q-41 0 -41 36z" />
<glyph unicode="&#xd2;" horiz-adv-x="747" d="M36 635q0 246 112.5 391.5t225 145.5t193.5 -90.5t113 -209.5t32 -247q0 -131 -34.5 -274.5t-114 -260t-184.5 -116.5q-164 0 -253.5 187t-89.5 474zM113 599q0 -246 80.5 -397t180.5 -151q95 0 178 173t83 396q0 218 -80.5 347t-180.5 129q-82 0 -171.5 -130.5 t-89.5 -366.5zM230 1582q-2 5 -1 11q0 19 22 35q9 3 16 3q22 0 30 -23l113 -302q3 -9 2 -17q0 -22 -23 -29q-9 -3 -16 -3q-22 0 -30 23z" />
<glyph unicode="&#xd3;" horiz-adv-x="747" d="M36 635q0 246 112.5 391.5t225 145.5t193.5 -90.5t113 -209.5t32 -247q0 -131 -34.5 -274.5t-114 -260t-184.5 -116.5q-164 0 -253.5 187t-89.5 474zM113 599q0 -246 80.5 -397t180.5 -151q95 0 178 173t83 396q0 218 -80.5 347t-180.5 129q-82 0 -171.5 -130.5 t-89.5 -366.5zM358 1306l113 302q8 23 30 23q7 0 16 -3q22 -16 22 -35q0 -5 -1 -11l-113 -302q-8 -23 -30 -23q-7 0 -16 3q-23 8 -23 29q-1 8 2 17z" />
<glyph unicode="&#xd4;" horiz-adv-x="747" d="M36 635q0 246 112.5 391.5t225 145.5t193.5 -90.5t113 -209.5t32 -247q0 -131 -34.5 -274.5t-114 -260t-184.5 -116.5q-164 0 -253.5 187t-89.5 474zM113 599q0 -246 80.5 -397t180.5 -151q95 0 178 173t83 396q0 218 -80.5 347t-180.5 129q-82 0 -171.5 -130.5 t-89.5 -366.5zM227 1275q-2 8 -3 14q0 10 6 17l108 302q8 26 36 25q23 0 30 -25l113 -302q2 -5 2 -11q0 -10 -6 -21q-9 -19 -27 -20q-28 0 -35 31l-77 210l-77 -205q-8 -36 -46 -36q-18 1 -24 21z" />
<glyph unicode="&#xd5;" horiz-adv-x="747" d="M36 635q0 246 112.5 391.5t225 145.5t193.5 -90.5t113 -209.5t32 -247q0 -131 -34.5 -274.5t-114 -260t-184.5 -116.5q-164 0 -253.5 187t-89.5 474zM113 599q0 -246 80.5 -397t180.5 -151q95 0 178 173t83 396q0 218 -80.5 347t-180.5 129q-82 0 -171.5 -130.5 t-89.5 -366.5zM123 1290q0 15 6.5 36t42 49t94.5 28q44 0 77 -23t48.5 -51.5t41 -51.5t59.5 -23q28 0 42 13t14 23q0 36 36 36q18 0 29.5 -11.5t11.5 -24.5q0 -38 -36 -75t-107.5 -37t-125.5 74t-90 74q-67 0 -66 -36q0 -10 -9 -23t-27 -13q-41 0 -41 36z" />
<glyph unicode="&#xd6;" horiz-adv-x="747" d="M36 635q0 246 112.5 391.5t225 145.5t193.5 -90.5t113 -209.5t32 -247q0 -131 -34.5 -274.5t-114 -260t-184.5 -116.5q-164 0 -253.5 187t-89.5 474zM113 599q0 -246 80.5 -397t180.5 -151q95 0 178 173t83 396q0 218 -80.5 347t-180.5 129q-82 0 -171.5 -130.5 t-89.5 -366.5zM128 1336q0 28 22 52.5t55 24.5q31 0 54 -24.5t23 -52.5q0 -36 -23 -59t-54 -23q-77 0 -77 82zM461 1331q0 31 24 54t53 23q33 0 54.5 -23t21.5 -54q0 -36 -20.5 -56.5t-55.5 -20.5q-28 0 -52.5 22t-24.5 55z" />
<glyph unicode="&#xd7;" horiz-adv-x="599" d="M138 328q-14 14 -14 28t14 28l108 108l-108 102q-14 14 -14 28t14 28t28 14l29 -14l102 -107l107 107q13 13 26 13l26 -13q14 -14 14 -28t-14 -28l-103 -102l103 -108q14 -14 14 -28t-14 -28q-13 -9 -26 -9l-26 9l-107 107l-102 -107q-14 -9 -29 -9z" />
<glyph unicode="&#xd8;" horiz-adv-x="747" d="M36 635q0 246 112.5 391.5t225 145.5t193.5 -90.5t113 -209.5t32 -247q0 -131 -34.5 -274.5t-114 -260t-184.5 -116.5q-164 0 -253.5 187t-89.5 474zM113 599q0 -246 80.5 -397t180.5 -151q95 0 178 173t83 396q0 218 -80.5 347t-180.5 129q-82 0 -171.5 -130.5 t-89.5 -366.5zM154 20l363 1137q8 27 34 27q6 0 12 -1q33 -8 33 -33q0 -6 -2 -13q-5 -10 -91 -276l-178 -550l-100 -311q-8 -27 -33 -27q-6 0 -13 1q-15 5 -24 18q-5 7 -5 15q0 6 4 13z" />
<glyph unicode="&#xd9;" horiz-adv-x="747" d="M36 671q0 -128 16.5 -244.5t53.5 -221.5t106.5 -168t161.5 -63q95 0 162.5 61.5t104.5 165.5t54 219t17 246l-26 455q-5 26 -41 26q-38 0 -38 -34q0 -8 2 -17q26 -169 26 -379q0 -102 -9 -198.5t-33.5 -211.5t-80.5 -185.5t-138 -70.5t-138.5 70.5t-80.5 187t-33 211 t-9 197.5l25 384q5 46 -36 46l-41 -26q-25 -133 -25 -450zM205 1582q-2 5 -2 11q0 19 22 35q9 3 17 3q22 0 29 -23l113 -302q3 -9 3 -17q0 -22 -23 -29q-9 -3 -17 -3q-22 0 -30 23z" />
<glyph unicode="&#xda;" horiz-adv-x="747" d="M36 671q0 141 6.5 253.5t13.5 155.5l5 41q5 26 41 26t37 -37q0 -57 -13 -187.5t-13 -205.5q0 -102 9 -197t33 -211.5t80.5 -187t138.5 -70.5t138 70.5t80.5 185.5t33.5 211t9 199q0 92 -6.5 186.5t-14.5 143.5l-5 49q-2 9 -2 17q0 34 38 34l41 -26q26 -133 26 -455 q0 -131 -17 -246t-54 -219t-105 -165.5t-162 -61.5q-92 0 -161.5 63t-106.5 168t-53.5 221.5t-16.5 244.5zM379 1306l113 302q8 23 29 23q7 0 17 -3q22 -16 22 -35q0 -5 -2 -11l-113 -302q-8 -23 -29 -23q-7 0 -17 3q-23 8 -23 29q0 8 3 17z" />
<glyph unicode="&#xdb;" horiz-adv-x="747" d="M36 671q0 -128 16.5 -244.5t53.5 -221.5t106.5 -168t161.5 -63q95 0 162.5 61.5t104.5 165.5t54 219t17 246l-26 455q-5 26 -41 26q-38 0 -38 -34q0 -8 2 -17q26 -169 26 -379q0 -102 -9 -198.5t-33.5 -211.5t-80.5 -185.5t-138 -70.5t-138.5 70.5t-80.5 187t-33 211 t-9 197.5l25 384q5 46 -36 46l-41 -26q-25 -133 -25 -450zM227 1275q-2 8 -3 14q0 10 6 17l108 302q8 26 36 25q23 0 30 -25l113 -302q2 -5 2 -11q0 -10 -6 -21q-9 -19 -27 -20q-28 0 -35 31l-77 210l-77 -205q-8 -36 -46 -36q-18 1 -24 21z" />
<glyph unicode="&#xdc;" horiz-adv-x="747" d="M36 671q0 -128 16.5 -244.5t53.5 -221.5t106.5 -168t161.5 -63q95 0 162.5 61.5t104.5 165.5t54 219t17 246l-26 455q-5 26 -41 26q-38 0 -38 -34q0 -8 2 -17q26 -169 26 -379q0 -102 -9 -198.5t-33.5 -211.5t-80.5 -185.5t-138 -70.5t-138.5 70.5t-80.5 187t-33 211 t-9 197.5l25 384q5 46 -36 46l-41 -26q-25 -133 -25 -450zM128 1336q0 28 22 52.5t55 24.5q31 0 54 -24.5t23 -52.5q0 -36 -23 -59t-54 -23q-77 0 -77 82zM461 1331q0 31 24 54t53 23q33 0 54.5 -23t21.5 -54q0 -36 -20.5 -56.5t-55.5 -20.5q-28 0 -52.5 22t-24.5 55z" />
<glyph unicode="&#xdd;" horiz-adv-x="721" d="M36 1111q0 13 10 24.5t26 11.5q10 0 19 -4t11 -6l6 -5l256 -477l250 477q5 15 36 15q36 0 36 -36l-5 -20l-282 -528v-527q0 -36 -35 -36q-18 0 -28.5 9t-12.5 17v10v527l-282 528q-5 10 -5 20zM271 1935l113 302q8 23 30 23q7 0 16 -2q22 -16 22 -35q0 -5 -1 -11 l-113 -302q-8 -23 -30 -23q-7 0 -16 2q-23 8 -23 30q-1 7 2 16z" />
<glyph unicode="&#xe0;" horiz-adv-x="670" d="M36 108q0 228 340 345q97 31 177 44q0 18 1 46v13q0 30 -4 89q-5 74 -16.5 132t-41 104t-72.5 46q-95 0 -168 -111.5t-73 -236.5q0 -36 -36 -36q-41 0 -41 36q0 166 99 295.5t219 129.5q105 0 157.5 -120.5t52.5 -289.5v-558q0 -36 -36 -36q-41 0 -41 36v128l-72 -53 q-44 -32 -146 -84.5t-166 -52.5q-54 0 -86 29.5t-39.5 55.5t-7.5 49zM113 108q0 -56 61 -57q123 3 379 205v164q-18 -3 -47.5 -9.5t-105 -32t-134.5 -57.5t-106 -89t-47 -124zM241 1367q-2 5 -2 11q0 19 22 35q9 3 16 3q22 0 30 -23l113 -302q3 -9 2 -17q0 -22 -23 -30 q-9 -3 -16 -2q-22 0 -30 23z" />
<glyph unicode="&#xe1;" horiz-adv-x="670" d="M36 108q0 228 340 345q97 31 177 44q0 18 1 46v13q0 30 -4 89q-5 74 -16.5 132t-41 104t-72.5 46q-95 0 -168 -111.5t-73 -236.5q0 -36 -36 -36q-41 0 -41 36q0 166 99 295.5t219 129.5q105 0 157.5 -120.5t52.5 -289.5v-558q0 -36 -36 -36q-41 0 -41 36v128l-72 -53 q-44 -32 -146 -84.5t-166 -52.5q-54 0 -86 29.5t-39.5 55.5t-7.5 49zM113 108q0 -56 61 -57q123 3 379 205v164q-18 -3 -47.5 -9.5t-105 -32t-134.5 -57.5t-106 -89t-47 -124zM389 1091l113 302q8 23 30 23q7 0 16 -3q22 -16 22 -35q0 -5 -2 -11l-112 -302q-8 -23 -30 -23 q-7 0 -16 2q-23 8 -23 30q-1 8 2 17z" />
<glyph unicode="&#xe2;" horiz-adv-x="670" d="M36 108q0 228 340 345q97 31 177 44q0 18 1 46v13q0 30 -4 89q-5 74 -16.5 132t-41 104t-72.5 46q-95 0 -168 -111.5t-73 -236.5q0 -36 -36 -36q-41 0 -41 36q0 166 99 295.5t219 129.5q105 0 157.5 -120.5t52.5 -289.5v-558q0 -36 -36 -36q-41 0 -41 36v128l-72 -53 q-44 -32 -146 -84.5t-166 -52.5q-54 0 -86 29.5t-39.5 55.5t-7.5 49zM113 108q0 -56 61 -57q123 3 379 205v164q-18 -3 -47.5 -9.5t-105 -32t-134.5 -57.5t-106 -89t-47 -124zM262 1167q-2 8 -2 15q0 10 6 16l108 302q8 26 36 26q23 0 30 -26l113 -302q2 -5 2 -10 q0 -10 -6 -22q-9 -19 -27 -19q-28 0 -36 31l-76 210l-77 -205q-8 -36 -46 -36q-19 0 -25 20z" />
<glyph unicode="&#xe3;" horiz-adv-x="670" d="M36 108q0 228 340 345q97 31 177 44q0 18 1 46v13q0 30 -4 89q-5 74 -16.5 132t-41 104t-72.5 46q-95 0 -168 -111.5t-73 -236.5q0 -36 -36 -36q-41 0 -41 36q0 166 99 295.5t219 129.5q105 0 157.5 -120.5t52.5 -289.5v-558q0 -36 -36 -36q-41 0 -41 36v128l-72 -53 q-44 -32 -146 -84.5t-166 -52.5q-54 0 -86 29.5t-39.5 55.5t-7.5 49zM82 1137q0 15 6.5 35.5t42 48.5t94.5 28q44 0 77 -23t48.5 -51t41 -51t59.5 -23q28 0 42 12.5t14 23.5q0 36 36 35q18 0 29.5 -11.5t11.5 -23.5q0 -38 -36 -75.5t-107.5 -37.5t-125.5 74t-90 74 q-67 0 -66 -35q0 -10 -9 -23t-27 -13q-41 0 -41 36zM113 108q0 -56 61 -57q123 3 379 205v164q-18 -3 -47.5 -9.5t-105 -32t-134.5 -57.5t-106 -89t-47 -124z" />
<glyph unicode="&#xe4;" horiz-adv-x="670" d="M36 108q0 228 340 345q97 31 177 44q0 18 1 46v13q0 30 -4 89q-5 74 -16.5 132t-41 104t-72.5 46q-95 0 -168 -111.5t-73 -236.5q0 -36 -36 -36q-41 0 -41 36q0 166 99 295.5t219 129.5q105 0 157.5 -120.5t52.5 -289.5v-558q0 -36 -36 -36q-41 0 -41 36v128l-72 -53 q-44 -32 -146 -84.5t-166 -52.5q-54 0 -86 29.5t-39.5 55.5t-7.5 49zM92 1229q0 28 22 52.5t55 24.5q31 0 54 -24.5t23 -52.5q0 -36 -23 -59t-54 -23q-77 0 -77 82zM113 108q0 -56 61 -57q123 3 379 205v164q-18 -3 -47.5 -9.5t-105 -32t-134.5 -57.5t-106 -89t-47 -124z M425 1224q0 31 24.5 53.5t52.5 22.5q33 0 55 -23t22 -53q0 -36 -20.5 -56.5t-56.5 -20.5q-28 0 -52.5 22t-24.5 55z" />
<glyph unicode="&#xe5;" horiz-adv-x="670" d="M36 108q0 228 340 345q97 31 177 44q0 18 1 46v13q0 30 -4 89q-5 74 -16.5 132t-41 104t-72.5 46q-95 0 -168 -111.5t-73 -236.5q0 -36 -36 -36q-41 0 -41 36q0 166 99 295.5t219 129.5q105 0 157.5 -120.5t52.5 -289.5v-558q0 -36 -36 -36q-41 0 -41 36v128l-72 -53 q-44 -32 -146 -84.5t-166 -52.5q-54 0 -86 29.5t-39.5 55.5t-7.5 49zM113 108q0 -56 61 -57q123 3 379 205v164q-18 -3 -47.5 -9.5t-105 -32t-134.5 -57.5t-106 -89t-47 -124zM220 1290q0 56 41 97t97 41q59 0 101.5 -40.5t42.5 -97.5q0 -61 -42.5 -102t-101 -41t-98.5 41 t-40 102zM276 1290q0 -36 24.5 -61.5t58 -25.5t57.5 25.5t24 61.5q0 31 -24 56.5t-57.5 25.5t-58 -25.5t-24.5 -56.5z" />
<glyph unicode="&#xe6;" horiz-adv-x="1192" d="M36 108q0 84 53.5 166t130.5 138t154 100t130 67l54 20q0 13 -1 32t-10 70.5t-23.5 91t-41 71.5t-62.5 32q-92 0 -166.5 -114t-74.5 -234q0 -36 -36 -36q-18 0 -29.5 10t-11.5 21q0 182 101.5 306t216.5 124q56 0 101 -36t63 -72l15 -36q5 13 18 32.5t65.5 52.5t121.5 33 q113 0 205 -82t92 -189q0 -69 -22 -114t-64 -61.5t-69 -20.5t-70 -4l-241 36q0 -46 16.5 -117.5t47.5 -151t89.5 -136t133.5 -56.5q154 0 153 302v72q0 36 36 36q41 0 41 -82q0 -179 -57.5 -292t-178.5 -113q-164 0 -263 198l-18 38l-95 -65q-59 -40 -184.5 -105.5 t-186.5 -65.5q-67 0 -100 41.5t-33 92.5zM113 108q0 -56 61 -57q108 3 430 246q-46 123 -46 220q-18 -8 -48.5 -19.5t-107.5 -53.5t-134.5 -87t-106 -112.5t-48.5 -136.5zM635 594q148 -41 235 -41q154 0 154 138q0 61 -70.5 120t-154.5 59q-87 0 -125.5 -66.5t-38.5 -209.5 z" />
<glyph unicode="&#xe7;" horiz-adv-x="629" d="M36 502q0 184 100 327.5t263 143.5q82 0 128 -47.5t46 -111.5q0 -36 -41 -36q-36 0 -35 36q0 15 -5.5 29.5t-29.5 31t-63 16.5q-128 0 -207 -114t-79 -275q0 -243 89.5 -347t196.5 -104q54 0 76 24.5t22 52.5q0 36 41 36q36 0 35 -36q0 -13 -3.5 -32t-17.5 -47.5t-46 -50 t-81 -24.5v-30q15 5 46 5q23 0 46 -10.5t47.5 -51.5t24.5 -107q0 -100 -36 -139.5t-77 -39.5q-46 0 -80.5 9t-47.5 16l-10 10q-15 10 -15 31q0 36 35 36q10 0 41 -13t62 -13q26 0 38.5 24.5t12.5 47.5v26v15q0 82 -51 82q-20 0 -43.5 -13t-33.5 -13q-36 0 -36 41v93 q-156 26 -234 176.5t-78 345.5z" />
<glyph unicode="&#xe8;" horiz-adv-x="675" d="M36 630q0 138 59 240.5t187 102.5t215 -96t87 -196q0 -77 -64 -115.5t-156 -38.5l-246 36q0 -46 11.5 -117.5t38.5 -166.5t87 -161.5t144 -66.5q59 0 97.5 52.5t50 118t11.5 142.5q0 15 -2 40l-3 26q0 15 13 25.5t28 10.5q41 0 41 -97q0 -59 -9 -119.5t-32 -127 t-74.5 -107.5t-120.5 -41q-166 0 -264.5 193.5t-98.5 462.5zM113 645q118 -41 256 -41q49 0 79.5 9t42 25.5t14 27t2.5 30.5q0 51 -63 125.5t-162 74.5q-74 0 -116.5 -62.5t-47.5 -126.5zM246 1393q-2 5 -2 10q0 19 22 36q9 3 17 2q22 0 29 -23l113 -302q3 -9 3 -16 q0 -22 -24 -30q-9 -3 -16 -2q-22 0 -30 23z" />
<glyph unicode="&#xe9;" horiz-adv-x="675" d="M36 630q0 138 59 240.5t187 102.5t215 -96t87 -196q0 -77 -64 -115.5t-156 -38.5l-246 36q0 -46 11.5 -117.5t38.5 -166.5t87 -161.5t144 -66.5q59 0 97.5 52.5t50 118t11.5 142.5q0 15 -2 40l-3 26q0 15 13 25.5t28 10.5q41 0 41 -97q0 -59 -9 -119.5t-32 -127 t-74.5 -107.5t-120.5 -41q-166 0 -264.5 193.5t-98.5 462.5zM113 645q118 -41 256 -41q49 0 79.5 9t42 25.5t14 27t2.5 30.5q0 51 -63 125.5t-162 74.5q-74 0 -116.5 -62.5t-47.5 -126.5zM276 1116l113 302q8 23 30 23q7 0 16 -2q22 -16 22 -36q0 -5 -1 -10l-113 -302 q-8 -23 -30 -23q-7 0 -16 2q-23 8 -23 30q-1 7 2 16z" />
<glyph unicode="&#xea;" horiz-adv-x="675" d="M36 630q0 138 59 240.5t187 102.5t215 -96t87 -196q0 -77 -64 -115.5t-156 -38.5l-246 36q0 -46 11.5 -117.5t38.5 -166.5t87 -161.5t144 -66.5q59 0 97.5 52.5t50 118t11.5 142.5q0 15 -2 40l-3 26q0 15 13 25.5t28 10.5q41 0 41 -97q0 -59 -9 -119.5t-32 -127 t-74.5 -107.5t-120.5 -41q-166 0 -264.5 193.5t-98.5 462.5zM113 645q118 -41 256 -41q49 0 79.5 9t42 25.5t14 27t2.5 30.5q0 51 -63 125.5t-162 74.5q-74 0 -116.5 -62.5t-47.5 -126.5zM191 1167q-2 8 -3 15q0 10 7 16l107 302q8 26 36 26q23 0 31 -26l112 -302 q2 -5 2 -10q0 -10 -6 -22q-9 -19 -26 -19q-28 0 -36 31l-77 210l-77 -205q-8 -36 -46 -36q-18 0 -24 20z" />
<glyph unicode="&#xeb;" horiz-adv-x="675" d="M36 630q0 138 59 240.5t187 102.5t215 -96t87 -196q0 -77 -64 -115.5t-156 -38.5l-246 36q0 -46 11.5 -117.5t38.5 -166.5t87 -161.5t144 -66.5q59 0 97.5 52.5t50 118t11.5 142.5q0 15 -2 40l-3 26q0 15 13 25.5t28 10.5q41 0 41 -97q0 -59 -9 -119.5t-32 -127 t-74.5 -107.5t-120.5 -41q-166 0 -264.5 193.5t-98.5 462.5zM46 1229q0 28 22 52.5t55 24.5q31 0 54 -24.5t23 -52.5q0 -36 -23 -59t-54 -23q-77 0 -77 82zM113 645q118 -41 256 -41q49 0 79.5 9t42 25.5t14 27t2.5 30.5q0 51 -63 125.5t-162 74.5q-74 0 -116.5 -62.5 t-47.5 -126.5zM379 1224q0 31 24.5 53.5t52.5 22.5q33 0 54.5 -23t21.5 -53q0 -36 -20 -56.5t-56 -20.5q-28 0 -52.5 22t-24.5 55z" />
<glyph unicode="&#xec;" horiz-adv-x="153" d="M-67 1393q-2 5 -1 10q0 19 22 36q9 3 16 2q22 0 30 -23l113 -302q3 -9 2 -16q0 -22 -23 -30q-36 -10 -46 21zM36 36q0 -15 12.5 -25.5t28.5 -10.5q36 0 36 36v870q0 15 -10.5 28t-26 13t-28 -12.5t-12.5 -28.5v-870z" />
<glyph unicode="&#xed;" horiz-adv-x="153" d="M36 36v870q0 15 12.5 28t28 13t26 -12.5t10.5 -28.5v-870q0 -36 -36 -36q-15 0 -28 10.5t-13 25.5zM46 1116l108 302q8 23 29 23q7 0 17 -2q26 -14 26 -31q0 -8 -6 -15l-107 -302q-8 -23 -30 -23q-7 0 -16 2q-26 7 -27 26q0 9 6 20z" />
<glyph unicode="&#xee;" horiz-adv-x="153" d="M-70 1167q-2 8 -3 15q0 10 6 16l108 302q8 26 36 26q23 0 31 -26l112 -302q2 -5 2 -10q0 -10 -6 -22q-9 -19 -27 -19q-28 0 -35 31l-77 210l-77 -205q-8 -36 -46 -36q-18 0 -24 20zM36 36q0 -15 12.5 -25.5t28.5 -10.5q36 0 36 36v870q0 15 -10.5 28t-26 13t-28 -12.5 t-12.5 -28.5v-870z" />
<glyph unicode="&#xef;" horiz-adv-x="153" d="M-169 1229q0 28 22 52.5t55 24.5q31 0 54 -24.5t23 -52.5q0 -36 -23 -59t-54 -23q-77 0 -77 82zM36 36q0 -15 12.5 -25.5t28.5 -10.5q36 0 36 36v870q0 15 -10.5 28t-26 13t-28 -12.5t-12.5 -28.5v-870zM164 1224q0 31 24 53.5t53 22.5q33 0 54.5 -23t21.5 -53 q0 -36 -20.5 -56.5t-55.5 -20.5q-28 0 -52.5 22t-24.5 55z" />
<glyph unicode="&#xf1;" horiz-adv-x="573" d="M36 1137q0 15 6.5 35.5t42 48.5t94.5 28q44 0 77 -23t48.5 -51t41 -51t58.5 -23q28 0 42.5 12.5t14.5 23.5q0 36 36 35q18 0 29.5 -11.5t11.5 -23.5q0 -38 -36 -75.5t-107.5 -37.5t-125.5 74t-90 74q-67 0 -66 -35q0 -10 -9 -23t-27 -13q-41 0 -41 36zM41 906 q-5 41 36 41q18 0 28 -10t13 -21v-10v-133q13 23 36 56.5t89.5 88.5t130.5 55q164 0 164 -410q0 -136 -8 -267.5t-15 -195.5l-8 -64q0 -36 -41 -36q-36 0 -36 36q0 5 15.5 163.5t15.5 281.5q0 415 -87 415q-61 0 -125.5 -69t-97.5 -138l-33 -69v-584q0 -36 -41 -36 q-38 3 -36 36v870z" />
<glyph unicode="&#xf2;" horiz-adv-x="629" d="M36 497q0 215 89.5 345.5t202.5 130.5q120 0 193 -136t73 -340q0 -215 -68 -369t-198 -154q-141 0 -216.5 133.5t-75.5 389.5zM113 497q0 -445 215 -446q87 0 138 130.5t51 315.5q0 159 -51 279t-138 120q-82 0 -148.5 -133t-66.5 -266zM225 1393q-2 5 -1 10q0 19 22 36 q9 3 16 2q22 0 30 -23l112 -302q3 -9 3 -16q0 -22 -23 -30q-9 -3 -16 -2q-22 0 -30 23z" />
<glyph unicode="&#xf3;" horiz-adv-x="629" d="M36 497q0 215 89.5 345.5t202.5 130.5q120 0 193 -136t73 -340q0 -215 -68 -369t-198 -154q-141 0 -216.5 133.5t-75.5 389.5zM113 497q0 -445 215 -446q87 0 138 130.5t51 315.5q0 159 -51 279t-138 120q-82 0 -148.5 -133t-66.5 -266zM297 1116l113 302q8 23 29 23 q7 0 17 -2q22 -16 22 -36q0 -5 -2 -10l-112 -302q-8 -23 -30 -23q-7 0 -17 2q-23 8 -23 30q0 7 3 16z" />
<glyph unicode="&#xf4;" horiz-adv-x="629" d="M36 497q0 215 89.5 345.5t202.5 130.5q120 0 193 -136t73 -340q0 -215 -68 -369t-198 -154q-141 0 -216.5 133.5t-75.5 389.5zM113 497q0 -445 215 -446q87 0 138 130.5t51 315.5q0 159 -51 279t-138 120q-82 0 -148.5 -133t-66.5 -266zM165 1085q-2 8 -2 15q0 10 6 16 l107 302q8 26 36 26q23 0 31 -26l113 -302q2 -5 2 -10q0 -10 -6 -22q-9 -19 -27 -19q-28 0 -36 31l-77 210l-76 -205q-8 -36 -47 -36q-18 0 -24 20z" />
<glyph unicode="&#xf5;" horiz-adv-x="629" d="M36 497q0 215 89.5 345.5t202.5 130.5q120 0 193 -136t73 -340q0 -215 -68 -369t-198 -154q-141 0 -216.5 133.5t-75.5 389.5zM61 1188q0 15 6.5 35.5t42.5 48.5t95 28q44 0 77 -23t48.5 -51t41 -51t58.5 -23q28 0 42 13t14 23q0 36 36 36q18 0 29.5 -11.5t11.5 -24.5 q0 -38 -35.5 -75.5t-107.5 -37.5t-125.5 74.5t-89.5 74.5q-67 0 -67 -36q0 -10 -9 -23t-27 -13q-41 0 -41 36zM113 497q0 -445 215 -446q87 0 138 130.5t51 315.5q0 159 -51 279t-138 120q-82 0 -148.5 -133t-66.5 -266z" />
<glyph unicode="&#xf6;" horiz-adv-x="629" d="M36 497q0 215 89.5 345.5t202.5 130.5q120 0 193 -136t73 -340q0 -215 -68 -369t-198 -154q-141 0 -216.5 133.5t-75.5 389.5zM72 1229q0 28 21.5 52.5t54.5 24.5q31 0 54 -24.5t23 -52.5q0 -36 -23 -59t-54 -23q-76 0 -76 82zM113 497q0 -445 215 -446q87 0 138 130.5 t51 315.5q0 159 -51 279t-138 120q-82 0 -148.5 -133t-66.5 -266zM404 1224q0 31 24.5 53.5t52.5 22.5q33 0 55 -23t22 -53q0 -36 -20.5 -56.5t-56.5 -20.5q-28 0 -52.5 22t-24.5 55z" />
<glyph unicode="&#xf7;" horiz-adv-x="204" d="M-136 489q0 38 39 38h404q36 0 36 -38t-36 -38h-404q-39 0 -39 38zM26 184q0 31 23 54t53 23q33 0 55 -23t22 -54q0 -36 -20.5 -56t-56.5 -20q-31 0 -53.5 21.5t-22.5 54.5zM26 773q0 33 23 55t53 22q36 0 56.5 -20.5t20.5 -56.5q0 -28 -21.5 -52.5t-55.5 -24.5 q-31 0 -53.5 24.5t-22.5 52.5z" />
<glyph unicode="&#xf8;" horiz-adv-x="629" d="M36 497q0 215 89.5 345.5t202.5 130.5q120 0 193 -136t73 -340q0 -215 -68 -369t-198 -154q-141 0 -216.5 133.5t-75.5 389.5zM97 -97l364 1136q8 27 33 27q6 0 13 -1q33 -8 33 -33q0 -6 -2 -13q-5 -10 -91 -275l-178 -551l-100 -311q-8 -27 -34 -27q-6 0 -12 2 q-15 5 -24 18q-5 7 -5 14q-1 7 3 14zM113 497q0 -445 215 -446q87 0 138 130.5t51 315.5q0 159 -51 279t-138 120q-82 0 -148.5 -133t-66.5 -266z" />
<glyph unicode="&#xf9;" horiz-adv-x="573" d="M36 379q0 -87 10 -169t50 -159t104 -77t128 50t97 99l31 51v-133q0 -41 41 -41q18 0 26.5 10t8.5 21v10v870q5 36 -35 36q-18 0 -28.5 -9t-12.5 -16v-11v-588q-13 -31 -36 -76t-91 -120.5t-129 -75.5q-87 0 -87 415q0 123 15 281.5t15 163.5q0 10 -9 23t-26 13 q-15 0 -25.5 -10t-13.5 -21l-2 -10q-31 -215 -31 -527zM195 1393q-2 5 -2 10q0 19 22 36q9 3 16 2q22 0 30 -23l113 -302q3 -9 2 -16q0 -22 -23 -30q-9 -3 -16 -2q-22 0 -30 23z" />
<glyph unicode="&#xfa;" horiz-adv-x="573" d="M36 379q0 138 7.5 270t15.5 196l8 61q5 41 41 41q18 0 26.5 -12.5t8.5 -23.5q0 -5 -15 -163.5t-15 -281.5q0 -415 87 -415q61 0 125 68t97 137l34 67v588q0 36 41 36q38 -3 35 -36v-870q5 -41 -35 -41q-18 0 -28.5 10t-12.5 21v10v133q-13 -23 -36 -56.5t-89.5 -88.5 t-130.5 -55t-104 77t-50 159t-10 169zM266 1116l113 302q8 23 30 23q7 0 16 -2q22 -16 22 -36q0 -5 -2 -10l-112 -302q-8 -23 -30 -23q-7 0 -16 2q-23 8 -23 30q-1 7 2 16z" />
<glyph unicode="&#xfb;" horiz-adv-x="573" d="M36 379q0 -87 10 -169t50 -159t104 -77t128 50t97 99l31 51v-133q0 -41 41 -41q18 0 26.5 10t8.5 21v10v870q5 36 -35 36q-18 0 -28.5 -9t-12.5 -16v-11v-588q-13 -31 -36 -76t-91 -120.5t-129 -75.5q-87 0 -87 415q0 123 15 281.5t15 163.5q0 10 -9 23t-26 13 q-15 0 -25.5 -10t-13.5 -21l-2 -10q-31 -215 -31 -527zM140 1167q-2 8 -3 15q0 10 6 16l108 302q8 26 36 26q23 0 30 -26l113 -302q2 -5 2 -10q0 -10 -6 -22q-9 -19 -27 -19q-28 0 -35 31l-77 210l-77 -205q-8 -36 -46 -36q-18 0 -24 20z" />
<glyph unicode="&#xfc;" horiz-adv-x="573" d="M36 379q0 -87 10 -169t50 -159t104 -77t128 50t97 99l31 51v-133q0 -41 41 -41q18 0 26.5 10t8.5 21v10v870q5 36 -35 36q-18 0 -28.5 -9t-12.5 -16v-11v-588q-13 -31 -36 -76t-91 -120.5t-129 -75.5q-87 0 -87 415q0 123 15 281.5t15 163.5q0 10 -9 23t-26 13 q-15 0 -25.5 -10t-13.5 -21l-2 -10q-31 -215 -31 -527zM61 1229q0 28 22 52.5t55 24.5q31 0 54 -24.5t23 -52.5q0 -36 -23 -59t-54 -23q-77 0 -77 82zM394 1224q0 31 24.5 53.5t52.5 22.5q33 0 55 -23t22 -53q0 -36 -20.5 -56.5t-56.5 -20.5q-28 0 -52.5 22t-24.5 55z" />
<glyph unicode="&#xfd;" horiz-adv-x="583" d="M36 -163.5q0 36.5 36 36.5q5 0 10 -1h225q56 0 107.5 41t51.5 123v138q-13 -23 -36 -56.5t-89.5 -88.5t-130.5 -55q-172 0 -173 452q0 85 7 186q8 166 28 299q10 36 41 36q13 0 24 -10t11 -26q0 -3 -6 -69t-14 -171t-10 -195q-1 -24 -1 -48q0 -131 24 -244 q28 -133 69 -133q59 0 123 68t97 137l36 67v588q0 36 36 36q18 0 28 -9t13 -16v-11v-875q0 -10 -2.5 -25.5t-17 -56.5t-37.5 -71.5t-70 -56.5t-109 -26h-225q-5 -1 -10 0q-36 0 -36 36.5zM287 1116l112 302q8 23 30 23q7 0 16 -2q22 -16 23 -36q0 -5 -2 -10l-113 -302 q-8 -23 -29 -23q-7 0 -17 2q-23 8 -23 30q0 7 3 16z" />
<glyph unicode="&#xff;" horiz-adv-x="583" d="M36 -163.5q0 -36.5 36 -36.5h10h225q97 0 156 59t69 118l11 59v875q0 36 -41 36q-33 0 -36 -36v-588l-14 -30q-9 -19 -37 -65t-57.5 -82t-69.5 -65.5t-78 -29.5q-41 0 -69 133q-24 113 -24 244q0 24 1 48q3 90 10.5 195t13.5 171.5t6 68.5q0 15 -11.5 25.5t-24 10.5 t-23 -9t-12.5 -16l-5 -11l-28 -276q-5 -93 -5 -172q0 -477 171 -489q64 0 128 50t97 99l31 51v-138q0 -82 -51 -123t-108 -41h-225q-5 1 -10 1q-36 0 -36 -36.5zM46 1229q0 28 22 52.5t55 24.5q31 0 54 -24.5t23 -52.5q0 -36 -23 -59t-54 -23q-77 0 -77 82zM379 1224 q0 31 24.5 53.5t52.5 22.5q33 0 54.5 -23t21.5 -53q0 -36 -20 -56.5t-56 -20.5q-28 0 -52.5 22t-24.5 55z" />
<glyph unicode="&#x152;" horiz-adv-x="1351" d="M36 635q0 246 112.5 391.5t225 145.5t193.5 -90.5t113 -209.5t32 -247q0 -131 -34.5 -274.5t-114 -260t-184.5 -116.5q-164 0 -253.5 187t-89.5 474zM113 599q0 -246 80.5 -397t180.5 -151q95 0 178 173t83 396q0 218 -80.5 347t-180.5 129q-82 0 -171.5 -130.5 t-89.5 -366.5zM783 36v1075q0 36 41 36h456q36 0 36 -36q0 -18 -9 -28t-17 -13h-10h-420v-312h241q36 0 36 -36q0 -18 -9 -28t-17 -13h-10h-241v-604h420q36 0 36 -41q-2 -36 -32 -36h-4h-456q-18 0 -29.5 11.5t-11.5 24.5z" />
<glyph unicode="&#x153;" horiz-adv-x="1305" d="M36 497q0 215 89.5 345.5t202.5 130.5q120 0 193 -136t73 -340q0 -215 -68 -369t-198 -154q-141 0 -216.5 133.5t-75.5 389.5zM113 497q0 -445 215 -446q87 0 138 130.5t51 315.5q0 159 -51 279t-138 120q-82 0 -148.5 -133t-66.5 -266zM666 630q0 138 58.5 240.5 t186.5 102.5t215 -96t87 -196q0 -77 -64 -115.5t-156 -38.5l-245 36q0 -46 11.5 -117.5t38 -166.5t87 -161.5t144.5 -66.5q59 0 97.5 52.5t50 118t11.5 142.5q0 15 -3 40l-2 26q0 15 12.5 25.5t28.5 10.5q41 0 41 -97q0 -59 -9 -119.5t-32 -127t-74.5 -107.5t-120.5 -41 q-166 0 -264.5 193.5t-98.5 462.5zM742 645q118 -41 256 -41q49 0 79.5 9t42.5 25.5t14.5 27t2.5 30.5q0 51 -63 125.5t-163 74.5q-74 0 -116 -62.5t-47 -126.5z" />
<glyph unicode="&#x178;" horiz-adv-x="721" d="M36 1111l5 -20l282 -528v-527q0 -36 41 -36q33 0 35 36v527l282 528q5 10 5 20q0 36 -36 36q-13 0 -21.5 -4t-11.5 -6l-3 -5l-250 -477l-256 477q-10 15 -36 15q-15 0 -25.5 -11.5t-10.5 -24.5zM118 1336q0 28 21.5 52.5t55.5 24.5q31 0 53.5 -24.5t22.5 -52.5 q0 -36 -23 -59t-53 -23q-77 0 -77 82zM451 1331q0 31 24 54t52 23q33 0 55 -23t22 -54q0 -36 -20.5 -56.5t-56.5 -20.5q-28 0 -52 22t-24 55z" />
<glyph unicode="&#x2c6;" horiz-adv-x="343" d="M27 1167q-2 8 -3 15q0 10 7 16l107 302q8 26 36 26q23 0 31 -26l112 -302q2 -5 2 -10q0 -10 -5 -22q-9 -19 -27 -19q-28 0 -36 31l-77 210l-77 -205q-8 -36 -46 -36q-18 0 -24 20z" />
<glyph unicode="&#x2dc;" horiz-adv-x="573" d="M36 1137q0 15 6.5 35.5t42 48.5t94.5 28q44 0 77 -23t48.5 -51t41 -51t58.5 -23q28 0 42.5 12.5t14.5 23.5q0 36 36 35q18 0 29.5 -11.5t11.5 -23.5q0 -38 -36 -75.5t-107.5 -37.5t-125.5 74t-90 74q-67 0 -66 -35q0 -10 -9 -23t-27 -13q-41 0 -41 36z" />
<glyph unicode="&#x2013;" horiz-adv-x="558" d="M38 724.5q0 38.5 39 38.5h404q36 0 36 -38.5t-36 -38.5h-404q-39 0 -39 38.5z" />
<glyph unicode="&#x2014;" horiz-adv-x="798" d="M38 724.5q0 38.5 39 38.5h645q38 0 38 -38.5t-38 -38.5h-645q-39 0 -39 38.5z" />
<glyph unicode="&#x2018;" horiz-adv-x="215" d="M26 1162q0 13 1 37.5t3.5 52.5t9 56t14 51t22 38.5t32.5 15.5v-184q33 0 57 -23t24 -59q0 -28 -25.5 -52.5t-55.5 -24.5q-33 0 -57.5 24.5t-24.5 52.5v15z" />
<glyph unicode="&#x2019;" horiz-adv-x="215" d="M26 1336q0 31 24 56.5t52 25.5q36 0 59 -24t23 -58v-15v-37q0 -27 -2.5 -52.5t-9 -56.5t-14 -52.5t-23 -37t-33.5 -15.5v184q-28 0 -52 24.5t-24 57.5z" />
<glyph unicode="&#x201c;" horiz-adv-x="450" d="M31 1147v15v37q0 27 2.5 52.5t9 56.5t14 52.5t23 37t33.5 15.5v-184q28 0 52 -23t24 -59q0 -26 -25.5 -51.5t-50.5 -25.5q-36 0 -59 24.5t-23 52.5zM266 1162q0 13 1.5 37.5t4 52.5t9 56t14 51t21.5 38.5t32 15.5v-184q33 0 57.5 -23t24.5 -59q0 -28 -25.5 -52.5 t-56.5 -24.5q-33 0 -57.5 24.5t-24.5 52.5v15z" />
<glyph unicode="&#x201d;" horiz-adv-x="450" d="M26 1336q0 31 24 56.5t52 25.5q36 0 59 -24t23 -58v-15v-37q0 -27 -2.5 -52.5t-9 -56.5t-14 -52.5t-23 -37t-33.5 -15.5v184q-28 0 -52 24.5t-24 57.5zM261 1336q0 31 25.5 56.5t56.5 25.5q33 0 57.5 -25.5t24.5 -56.5v-15q0 -13 -1.5 -37t-4 -52.5t-9 -56.5t-14 -51 t-21.5 -38.5t-32 -15.5v184q-31 0 -56.5 24.5t-25.5 57.5z" />
<glyph unicode="&#x2022;" horiz-adv-x="296" d="M36 563q0 28 18 47.5t48 19.5q26 0 46.5 -20.5t20.5 -46.5q0 -31 -19 -48.5t-48 -17.5q-66 -1 -66 66z" />
<glyph unicode="&#x2026;" horiz-adv-x="614" d="M26 77q0 28 21.5 52.5t54.5 24.5q26 0 51.5 -26t25.5 -51q0 -33 -24 -55t-53 -22q-36 0 -56 20.5t-20 56.5zM230 77q0 28 22 52.5t55 24.5q26 0 51.5 -26t25.5 -51q0 -33 -24.5 -55t-52.5 -22q-36 0 -56.5 20.5t-20.5 56.5zM435 77q0 28 22 52.5t55 24.5q26 0 51.5 -26 t25.5 -51q0 -33 -24.5 -55t-52.5 -22q-36 0 -56.5 20.5t-20.5 56.5z" />
<glyph unicode="&#x2039;" horiz-adv-x="962" d="M41 568q0 28 26 36q10 5 188 64l382 126l233 76q7 4 15 4l16 -5q15 -9 21 -24q2 -7 2 -14q0 -25 -33 -32q-13 -5 -338 -112.5t-353 -118.5l691 -230q33 -8 33 -33q0 -6 -2 -13q-5 -15 -21 -24q-8 -5 -16 -5l-15 3q-10 3 -189 62l-378 125l-236 79q-26 8 -26 36z" />
<glyph unicode="&#x203a;" horiz-adv-x="962" d="M41 292q-1 6 -1 11q0 23 27 35q10 3 336.5 110.5t359.5 114.5l-696 231q-27 12 -27 35q0 5 1 11q8 33 33 32q6 0 13 -2q10 -5 188 -64l383 -125q205 -67 233 -77q31 -10 31 -38t-31 -39q-148 -59 -804 -266q-7 -2 -13 -2q-25 0 -33 33z" />
<glyph unicode="&#x2122;" horiz-adv-x="737" d="M128 1490l15 20h205q10 0 13 -3.5t20 -37.5l70 -122l128 158q5 5 10 5q20 0 20 -20v-476q0 -20 -20 -21l-16 21v430l-112 -138q-5 -5 -10 -6l-16 11l-71 117v-414q0 -20 -16 -21q-20 0 -20 21v461h-67v-461q0 -20 -15 -21l-16 21v461h-87q-15 0 -15 15z" />
<glyph unicode="&#xe000;" horiz-adv-x="945" d="M0 945h945v-945h-945v945z" />
<glyph unicode="&#xfb01;" horiz-adv-x="798" d="M36 435q0 18 12.5 27t23.5 9q5 0 43.5 -10t53.5 -10v122q0 579 343 579q82 0 137 -34.5t77 -93.5t29.5 -101t7.5 -88q0 -41 -41 -41q-15 0 -25.5 12.5t-10.5 28.5q0 95 -38.5 165t-135.5 70q-95 0 -157.5 -65t-85.5 -152.5t-23 -192.5l5 -220h72q74 0 153 31l77 31 q15 0 28 -10.5t13 -25.5l-21 -36q-123 -67 -256 -66h-61q0 -31 13 -110.5t25.5 -147.5t12.5 -70q0 -36 -36 -36l-35 26q-56 256 -57 348q-23 0 -53.5 6.5t-48.5 13.5l-21 5q-20 5 -20 36zM686 41v614q0 15 10.5 28t25.5 13q41 0 41 -41v-614q0 -36 -41 -36q-36 0 -36 36z " />
<glyph unicode="&#xfb02;" horiz-adv-x="798" d="M36 435q0 18 12.5 27t23.5 9q5 0 43.5 -10t53.5 -10v122q0 579 343 579q82 0 137 -34.5t77 -89.5t29.5 -93.5t7.5 -74.5v-824q0 -15 -13 -25.5t-28 -10.5q-36 0 -36 36v829q-15 205 -174 205q-95 0 -157.5 -65t-85.5 -152.5t-23 -192.5l5 -220h72q74 0 153 31l77 31 q15 0 28 -10.5t13 -25.5l-21 -36q-123 -67 -256 -66h-61q0 -31 13 -110.5t25.5 -147.5t12.5 -70q0 -36 -36 -36l-35 26q-56 256 -57 348q-23 0 -53.5 6.5t-48.5 13.5l-21 5q-20 5 -20 36z" />
<glyph unicode="&#xfb03;" horiz-adv-x="1751" d="M36 435q0 18 12.5 27t23.5 9q5 0 43.5 -10t53.5 -10v122q0 579 343 579q82 0 137 -34.5t77 -89.5t29.5 -93.5t7.5 -74.5l-15 -138q-10 -31 -36 -31q-41 0 -41 41l7 41q8 41 8 103q0 72 -39.5 133t-134.5 61t-157.5 -65t-85.5 -152.5t-23 -192.5l5 -220h72q74 0 153 31 l77 31q15 0 28 -10.5t13 -25.5l-21 -36q-123 -67 -256 -66h-61q0 -31 13 -110.5t25.5 -147.5t12.5 -70q0 -36 -36 -36l-35 26q-56 256 -57 348q-23 0 -53.5 6.5t-48.5 13.5l-21 5q-20 5 -20 36zM835 435q0 18 12.5 27t22.5 9q5 0 43.5 -10t54.5 -10v122q0 579 343 579 q82 0 137 -34.5t76.5 -89.5t29.5 -93.5t8 -74.5l-16 -138q-10 -31 -36 -31q-41 0 -41 41l8 41q8 41 8 103q0 72 -40 133t-134.5 61t-157 -65t-86 -152.5t-23.5 -192.5l6 -220h71q74 0 154 31l77 31q15 0 28 -10.5t13 -25.5l-21 -36q-123 -67 -256 -66h-61q0 -31 12.5 -110.5 t25.5 -147.5t13 -70q0 -36 -36 -36l-36 26q-56 256 -56 348q-23 0 -54 6.5t-48 13.5l-21 5q-20 5 -20 36zM1633 36v870q0 15 13 28t28.5 13t25.5 -12.5t10 -28.5v-870q0 -36 -36 -36q-15 0 -28 10.5t-13 25.5zM1633 1106v46q0 15 13 28t28.5 13t25.5 -13t10 -28v-46 q0 -15 -10 -28t-25.5 -13t-28.5 13t-13 28z" />
<glyph unicode="&#xfb04;" horiz-adv-x="1751" d="M36 435q0 18 12.5 27t23.5 9q5 0 43.5 -10t53.5 -10v122q0 579 343 579q82 0 137 -34.5t77 -89.5t29.5 -93.5t7.5 -74.5l-15 -138q-10 -31 -36 -31q-41 0 -41 41l7 41q8 41 8 103q0 72 -39.5 133t-134.5 61t-157.5 -65t-85.5 -152.5t-23 -192.5l5 -220h72q74 0 153 31 l77 31q15 0 28 -10.5t13 -25.5l-21 -36q-123 -67 -256 -66h-61q0 -31 13 -110.5t25.5 -147.5t12.5 -70q0 -36 -36 -36l-35 26q-56 256 -57 348q-23 0 -53.5 6.5t-48.5 13.5l-21 5q-20 5 -20 36zM835 435q0 18 12.5 27t22.5 9q5 0 43.5 -10t54.5 -10v122q0 579 343 579 q82 0 137 -34.5t76.5 -89.5t29.5 -93.5t8 -74.5l-16 -138q-10 -31 -36 -31q-41 0 -41 41l8 41q8 41 8 103q0 72 -40 133t-134.5 61t-157 -65t-86 -152.5t-23.5 -192.5l6 -220h71q74 0 154 31l77 31q15 0 28 -10.5t13 -25.5l-21 -36q-123 -67 -256 -66h-61q0 -31 12.5 -110.5 t25.5 -147.5t13 -70q0 -36 -36 -36l-36 26q-56 256 -56 348q-23 0 -54 6.5t-48 13.5l-21 5q-20 5 -20 36zM1633 36v1075q0 15 13 25.5t28 10.5q36 0 36 -36v-1075q0 -36 -36 -36q-15 0 -28 10.5t-13 25.5z" />
</font>
</defs>
</svg>
